<mxfile host="app.diagrams.net" modified="2024-04-06T04:31:52.177Z" agent="Mozilla/5.0 (Windows NT 10.0; Win64; x64) AppleWebKit/537.36 (KHTML, like Gecko) Chrome/121.0.0.0 Safari/537.36 OPR/107.0.0.0" etag="WVb1NtP_8hfdU-dDJCaD" version="24.2.2" type="github">
  <diagram name="wireframe admin" id="rL5e0oN_YTX8aWdYo2cD">
    <mxGraphModel dx="2532" dy="903" grid="1" gridSize="10" guides="1" tooltips="1" connect="1" arrows="1" fold="1" page="1" pageScale="1" pageWidth="850" pageHeight="1100" math="0" shadow="0">
      <root>
        <mxCell id="0" />
        <mxCell id="1" parent="0" />
        <mxCell id="zer_g0Ymn60Sb0Y0c3ZG-1" value="" style="rounded=0;whiteSpace=wrap;html=1;" parent="1" vertex="1">
          <mxGeometry x="58.75" y="90" width="717.5" height="70" as="geometry" />
        </mxCell>
        <mxCell id="zer_g0Ymn60Sb0Y0c3ZG-2" value="" style="rounded=0;whiteSpace=wrap;html=1;" parent="1" vertex="1">
          <mxGeometry x="58.75" y="160" width="160" height="360" as="geometry" />
        </mxCell>
        <mxCell id="zer_g0Ymn60Sb0Y0c3ZG-3" value="" style="rounded=0;whiteSpace=wrap;html=1;" parent="1" vertex="1">
          <mxGeometry x="58.75" y="160" width="160" height="60" as="geometry" />
        </mxCell>
        <mxCell id="zer_g0Ymn60Sb0Y0c3ZG-4" value="" style="shape=actor;whiteSpace=wrap;html=1;" parent="1" vertex="1">
          <mxGeometry x="713.75" y="120" width="20" height="15" as="geometry" />
        </mxCell>
        <mxCell id="zer_g0Ymn60Sb0Y0c3ZG-5" value="" style="html=1;verticalLabelPosition=bottom;align=center;labelBackgroundColor=#ffffff;verticalAlign=top;strokeWidth=2;strokeColor=#000000;shadow=0;dashed=0;shape=mxgraph.ios7.icons.bell;" parent="1" vertex="1">
          <mxGeometry x="648.75" y="122.5" width="20" height="10" as="geometry" />
        </mxCell>
        <mxCell id="zer_g0Ymn60Sb0Y0c3ZG-6" value="" style="sketch=0;pointerEvents=1;shadow=0;dashed=0;html=1;strokeColor=none;fillColor=#505050;labelPosition=center;verticalLabelPosition=bottom;verticalAlign=top;outlineConnect=0;align=center;shape=mxgraph.office.concepts.home;" parent="1" vertex="1">
          <mxGeometry x="68.75" y="175" width="30" height="30" as="geometry" />
        </mxCell>
        <mxCell id="zer_g0Ymn60Sb0Y0c3ZG-7" value="Admin Page" style="text;html=1;align=center;verticalAlign=middle;whiteSpace=wrap;rounded=0;" parent="1" vertex="1">
          <mxGeometry x="98.75" y="175" width="90" height="30" as="geometry" />
        </mxCell>
        <mxCell id="zer_g0Ymn60Sb0Y0c3ZG-8" value="" style="shape=image;verticalLabelPosition=bottom;labelBackgroundColor=default;verticalAlign=top;aspect=fixed;imageAspect=0;image=https://images.rawpixel.com/image_png_social_square/czNmcy1wcml2YXRlL3Jhd3BpeGVsX2ltYWdlcy93ZWJzaXRlX2NvbnRlbnQvbHIvdjk5My00MC5wbmc.png;" parent="1" vertex="1">
          <mxGeometry x="66.25" y="270" width="20" height="20" as="geometry" />
        </mxCell>
        <mxCell id="zer_g0Ymn60Sb0Y0c3ZG-9" value="Dash board" style="text;html=1;align=center;verticalAlign=middle;whiteSpace=wrap;rounded=0;" parent="1" vertex="1">
          <mxGeometry x="88.75" y="265" width="90" height="30" as="geometry" />
        </mxCell>
        <mxCell id="zer_g0Ymn60Sb0Y0c3ZG-10" value="" style="shape=internalStorage;whiteSpace=wrap;html=1;backgroundOutline=1;dx=10;dy=20;" parent="1" vertex="1">
          <mxGeometry x="63.75" y="310" width="25" height="20" as="geometry" />
        </mxCell>
        <mxCell id="zer_g0Ymn60Sb0Y0c3ZG-11" value="System management" style="text;html=1;align=center;verticalAlign=middle;whiteSpace=wrap;rounded=0;" parent="1" vertex="1">
          <mxGeometry x="73.75" y="307.5" width="150" height="25" as="geometry" />
        </mxCell>
        <mxCell id="zer_g0Ymn60Sb0Y0c3ZG-12" value="&lt;i&gt;Navigation&lt;/i&gt;" style="text;html=1;align=center;verticalAlign=middle;whiteSpace=wrap;rounded=0;" parent="1" vertex="1">
          <mxGeometry x="73.75" y="230" width="60" height="30" as="geometry" />
        </mxCell>
        <mxCell id="zer_g0Ymn60Sb0Y0c3ZG-13" value="Admin home" style="text;html=1;align=center;verticalAlign=middle;whiteSpace=wrap;rounded=0;" parent="1" vertex="1">
          <mxGeometry x="73.75" y="110" width="105" height="30" as="geometry" />
        </mxCell>
        <mxCell id="zer_g0Ymn60Sb0Y0c3ZG-14" value="" style="rounded=0;whiteSpace=wrap;html=1;" parent="1" vertex="1">
          <mxGeometry x="860" y="90" width="720" height="70" as="geometry" />
        </mxCell>
        <mxCell id="zer_g0Ymn60Sb0Y0c3ZG-15" value="" style="rounded=0;whiteSpace=wrap;html=1;" parent="1" vertex="1">
          <mxGeometry x="860" y="160" width="160" height="360" as="geometry" />
        </mxCell>
        <mxCell id="zer_g0Ymn60Sb0Y0c3ZG-16" value="" style="rounded=0;whiteSpace=wrap;html=1;" parent="1" vertex="1">
          <mxGeometry x="860" y="160" width="160" height="60" as="geometry" />
        </mxCell>
        <mxCell id="zer_g0Ymn60Sb0Y0c3ZG-17" value="" style="shape=actor;whiteSpace=wrap;html=1;" parent="1" vertex="1">
          <mxGeometry x="1515" y="120" width="20" height="15" as="geometry" />
        </mxCell>
        <mxCell id="zer_g0Ymn60Sb0Y0c3ZG-18" value="" style="html=1;verticalLabelPosition=bottom;align=center;labelBackgroundColor=#ffffff;verticalAlign=top;strokeWidth=2;strokeColor=#000000;shadow=0;dashed=0;shape=mxgraph.ios7.icons.bell;" parent="1" vertex="1">
          <mxGeometry x="1450" y="122.5" width="20" height="10" as="geometry" />
        </mxCell>
        <mxCell id="zer_g0Ymn60Sb0Y0c3ZG-19" value="" style="sketch=0;pointerEvents=1;shadow=0;dashed=0;html=1;strokeColor=none;fillColor=#505050;labelPosition=center;verticalLabelPosition=bottom;verticalAlign=top;outlineConnect=0;align=center;shape=mxgraph.office.concepts.home;" parent="1" vertex="1">
          <mxGeometry x="870" y="175" width="30" height="30" as="geometry" />
        </mxCell>
        <mxCell id="zer_g0Ymn60Sb0Y0c3ZG-20" value="Admin Page" style="text;html=1;align=center;verticalAlign=middle;whiteSpace=wrap;rounded=0;" parent="1" vertex="1">
          <mxGeometry x="900" y="175" width="90" height="30" as="geometry" />
        </mxCell>
        <mxCell id="zer_g0Ymn60Sb0Y0c3ZG-21" value="" style="shape=image;verticalLabelPosition=bottom;labelBackgroundColor=default;verticalAlign=top;aspect=fixed;imageAspect=0;image=https://images.rawpixel.com/image_png_social_square/czNmcy1wcml2YXRlL3Jhd3BpeGVsX2ltYWdlcy93ZWJzaXRlX2NvbnRlbnQvbHIvdjk5My00MC5wbmc.png;" parent="1" vertex="1">
          <mxGeometry x="867.5" y="270" width="20" height="20" as="geometry" />
        </mxCell>
        <mxCell id="zer_g0Ymn60Sb0Y0c3ZG-22" value="Dash board" style="text;html=1;align=center;verticalAlign=middle;whiteSpace=wrap;rounded=0;" parent="1" vertex="1">
          <mxGeometry x="890" y="265" width="90" height="30" as="geometry" />
        </mxCell>
        <mxCell id="zer_g0Ymn60Sb0Y0c3ZG-23" value="" style="shape=internalStorage;whiteSpace=wrap;html=1;backgroundOutline=1;dx=10;dy=20;" parent="1" vertex="1">
          <mxGeometry x="865" y="310" width="25" height="20" as="geometry" />
        </mxCell>
        <mxCell id="zer_g0Ymn60Sb0Y0c3ZG-24" value="System management" style="text;html=1;align=center;verticalAlign=middle;whiteSpace=wrap;rounded=0;" parent="1" vertex="1">
          <mxGeometry x="875" y="307.5" width="150" height="25" as="geometry" />
        </mxCell>
        <mxCell id="zer_g0Ymn60Sb0Y0c3ZG-25" value="&lt;i&gt;Navigation&lt;/i&gt;" style="text;html=1;align=center;verticalAlign=middle;whiteSpace=wrap;rounded=0;" parent="1" vertex="1">
          <mxGeometry x="875" y="230" width="60" height="30" as="geometry" />
        </mxCell>
        <mxCell id="zer_g0Ymn60Sb0Y0c3ZG-26" value="Admin dashboard" style="text;html=1;align=center;verticalAlign=middle;whiteSpace=wrap;rounded=0;" parent="1" vertex="1">
          <mxGeometry x="875" y="110" width="105" height="30" as="geometry" />
        </mxCell>
        <mxCell id="zer_g0Ymn60Sb0Y0c3ZG-27" value="" style="rounded=0;whiteSpace=wrap;html=1;" parent="1" vertex="1">
          <mxGeometry x="-800" y="600" width="717.5" height="70" as="geometry" />
        </mxCell>
        <mxCell id="zer_g0Ymn60Sb0Y0c3ZG-28" value="" style="rounded=0;whiteSpace=wrap;html=1;" parent="1" vertex="1">
          <mxGeometry x="-800" y="670" width="160" height="360" as="geometry" />
        </mxCell>
        <mxCell id="zer_g0Ymn60Sb0Y0c3ZG-29" value="" style="rounded=0;whiteSpace=wrap;html=1;" parent="1" vertex="1">
          <mxGeometry x="-800" y="670" width="160" height="60" as="geometry" />
        </mxCell>
        <mxCell id="zer_g0Ymn60Sb0Y0c3ZG-30" value="" style="shape=actor;whiteSpace=wrap;html=1;" parent="1" vertex="1">
          <mxGeometry x="-145" y="630" width="20" height="15" as="geometry" />
        </mxCell>
        <mxCell id="zer_g0Ymn60Sb0Y0c3ZG-31" value="" style="html=1;verticalLabelPosition=bottom;align=center;labelBackgroundColor=#ffffff;verticalAlign=top;strokeWidth=2;strokeColor=#000000;shadow=0;dashed=0;shape=mxgraph.ios7.icons.bell;" parent="1" vertex="1">
          <mxGeometry x="-210" y="632.5" width="20" height="10" as="geometry" />
        </mxCell>
        <mxCell id="zer_g0Ymn60Sb0Y0c3ZG-32" value="" style="sketch=0;pointerEvents=1;shadow=0;dashed=0;html=1;strokeColor=none;fillColor=#505050;labelPosition=center;verticalLabelPosition=bottom;verticalAlign=top;outlineConnect=0;align=center;shape=mxgraph.office.concepts.home;" parent="1" vertex="1">
          <mxGeometry x="-790" y="685" width="30" height="30" as="geometry" />
        </mxCell>
        <mxCell id="zer_g0Ymn60Sb0Y0c3ZG-33" value="Admin Page" style="text;html=1;align=center;verticalAlign=middle;whiteSpace=wrap;rounded=0;" parent="1" vertex="1">
          <mxGeometry x="-760" y="685" width="90" height="30" as="geometry" />
        </mxCell>
        <mxCell id="zer_g0Ymn60Sb0Y0c3ZG-34" value="" style="shape=image;verticalLabelPosition=bottom;labelBackgroundColor=default;verticalAlign=top;aspect=fixed;imageAspect=0;image=https://images.rawpixel.com/image_png_social_square/czNmcy1wcml2YXRlL3Jhd3BpeGVsX2ltYWdlcy93ZWJzaXRlX2NvbnRlbnQvbHIvdjk5My00MC5wbmc.png;" parent="1" vertex="1">
          <mxGeometry x="-792.5" y="780" width="20" height="20" as="geometry" />
        </mxCell>
        <mxCell id="zer_g0Ymn60Sb0Y0c3ZG-35" value="Dash board" style="text;html=1;align=center;verticalAlign=middle;whiteSpace=wrap;rounded=0;" parent="1" vertex="1">
          <mxGeometry x="-770" y="775" width="90" height="30" as="geometry" />
        </mxCell>
        <mxCell id="zer_g0Ymn60Sb0Y0c3ZG-36" value="" style="shape=internalStorage;whiteSpace=wrap;html=1;backgroundOutline=1;dx=10;dy=20;" parent="1" vertex="1">
          <mxGeometry x="-795" y="820" width="25" height="20" as="geometry" />
        </mxCell>
        <mxCell id="zer_g0Ymn60Sb0Y0c3ZG-37" value="System management" style="text;html=1;align=center;verticalAlign=middle;whiteSpace=wrap;rounded=0;" parent="1" vertex="1">
          <mxGeometry x="-785" y="817.5" width="150" height="25" as="geometry" />
        </mxCell>
        <mxCell id="zer_g0Ymn60Sb0Y0c3ZG-38" value="&lt;i&gt;Navigation&lt;/i&gt;" style="text;html=1;align=center;verticalAlign=middle;whiteSpace=wrap;rounded=0;" parent="1" vertex="1">
          <mxGeometry x="-785" y="740" width="60" height="30" as="geometry" />
        </mxCell>
        <mxCell id="zer_g0Ymn60Sb0Y0c3ZG-39" value="Admin account management" style="text;html=1;align=center;verticalAlign=middle;whiteSpace=wrap;rounded=0;" parent="1" vertex="1">
          <mxGeometry x="-785" y="620" width="160" height="30" as="geometry" />
        </mxCell>
        <mxCell id="zer_g0Ymn60Sb0Y0c3ZG-40" value="" style="triangle;whiteSpace=wrap;html=1;" parent="1" vertex="1">
          <mxGeometry x="-777.5" y="870" width="10" height="10" as="geometry" />
        </mxCell>
        <mxCell id="zer_g0Ymn60Sb0Y0c3ZG-41" value="Account" style="text;html=1;align=left;verticalAlign=middle;whiteSpace=wrap;rounded=0;" parent="1" vertex="1">
          <mxGeometry x="-760" y="860" width="60" height="30" as="geometry" />
        </mxCell>
        <mxCell id="zer_g0Ymn60Sb0Y0c3ZG-42" value="" style="triangle;whiteSpace=wrap;html=1;" parent="1" vertex="1">
          <mxGeometry x="-777.5" y="905" width="10" height="10" as="geometry" />
        </mxCell>
        <mxCell id="zer_g0Ymn60Sb0Y0c3ZG-43" value="Event" style="text;html=1;align=left;verticalAlign=middle;whiteSpace=wrap;rounded=0;" parent="1" vertex="1">
          <mxGeometry x="-760" y="895" width="60" height="30" as="geometry" />
        </mxCell>
        <mxCell id="zer_g0Ymn60Sb0Y0c3ZG-44" value="" style="rounded=0;whiteSpace=wrap;html=1;" parent="1" vertex="1">
          <mxGeometry x="58.75" y="600" width="727.5" height="70" as="geometry" />
        </mxCell>
        <mxCell id="zer_g0Ymn60Sb0Y0c3ZG-45" value="" style="rounded=0;whiteSpace=wrap;html=1;" parent="1" vertex="1">
          <mxGeometry x="58.75" y="670" width="160" height="360" as="geometry" />
        </mxCell>
        <mxCell id="zer_g0Ymn60Sb0Y0c3ZG-46" value="" style="rounded=0;whiteSpace=wrap;html=1;" parent="1" vertex="1">
          <mxGeometry x="58.75" y="670" width="160" height="60" as="geometry" />
        </mxCell>
        <mxCell id="zer_g0Ymn60Sb0Y0c3ZG-47" value="" style="shape=actor;whiteSpace=wrap;html=1;" parent="1" vertex="1">
          <mxGeometry x="713.75" y="630" width="20" height="15" as="geometry" />
        </mxCell>
        <mxCell id="zer_g0Ymn60Sb0Y0c3ZG-48" value="" style="html=1;verticalLabelPosition=bottom;align=center;labelBackgroundColor=#ffffff;verticalAlign=top;strokeWidth=2;strokeColor=#000000;shadow=0;dashed=0;shape=mxgraph.ios7.icons.bell;" parent="1" vertex="1">
          <mxGeometry x="648.75" y="632.5" width="20" height="10" as="geometry" />
        </mxCell>
        <mxCell id="zer_g0Ymn60Sb0Y0c3ZG-49" value="" style="sketch=0;pointerEvents=1;shadow=0;dashed=0;html=1;strokeColor=none;fillColor=#505050;labelPosition=center;verticalLabelPosition=bottom;verticalAlign=top;outlineConnect=0;align=center;shape=mxgraph.office.concepts.home;" parent="1" vertex="1">
          <mxGeometry x="68.75" y="685" width="30" height="30" as="geometry" />
        </mxCell>
        <mxCell id="zer_g0Ymn60Sb0Y0c3ZG-50" value="Admin Page" style="text;html=1;align=center;verticalAlign=middle;whiteSpace=wrap;rounded=0;" parent="1" vertex="1">
          <mxGeometry x="98.75" y="685" width="90" height="30" as="geometry" />
        </mxCell>
        <mxCell id="zer_g0Ymn60Sb0Y0c3ZG-51" value="" style="shape=image;verticalLabelPosition=bottom;labelBackgroundColor=default;verticalAlign=top;aspect=fixed;imageAspect=0;image=https://images.rawpixel.com/image_png_social_square/czNmcy1wcml2YXRlL3Jhd3BpeGVsX2ltYWdlcy93ZWJzaXRlX2NvbnRlbnQvbHIvdjk5My00MC5wbmc.png;" parent="1" vertex="1">
          <mxGeometry x="66.25" y="780" width="20" height="20" as="geometry" />
        </mxCell>
        <mxCell id="zer_g0Ymn60Sb0Y0c3ZG-52" value="Dash board" style="text;html=1;align=center;verticalAlign=middle;whiteSpace=wrap;rounded=0;" parent="1" vertex="1">
          <mxGeometry x="88.75" y="775" width="90" height="30" as="geometry" />
        </mxCell>
        <mxCell id="zer_g0Ymn60Sb0Y0c3ZG-53" value="" style="shape=internalStorage;whiteSpace=wrap;html=1;backgroundOutline=1;dx=10;dy=20;" parent="1" vertex="1">
          <mxGeometry x="63.75" y="820" width="25" height="20" as="geometry" />
        </mxCell>
        <mxCell id="zer_g0Ymn60Sb0Y0c3ZG-54" value="System management" style="text;html=1;align=center;verticalAlign=middle;whiteSpace=wrap;rounded=0;" parent="1" vertex="1">
          <mxGeometry x="73.75" y="817.5" width="150" height="25" as="geometry" />
        </mxCell>
        <mxCell id="zer_g0Ymn60Sb0Y0c3ZG-55" value="&lt;i&gt;Navigation&lt;/i&gt;" style="text;html=1;align=center;verticalAlign=middle;whiteSpace=wrap;rounded=0;" parent="1" vertex="1">
          <mxGeometry x="73.75" y="740" width="60" height="30" as="geometry" />
        </mxCell>
        <mxCell id="zer_g0Ymn60Sb0Y0c3ZG-56" value="Admin account management" style="text;html=1;align=center;verticalAlign=middle;whiteSpace=wrap;rounded=0;" parent="1" vertex="1">
          <mxGeometry x="73.75" y="620" width="160" height="30" as="geometry" />
        </mxCell>
        <mxCell id="zer_g0Ymn60Sb0Y0c3ZG-57" value="" style="triangle;whiteSpace=wrap;html=1;" parent="1" vertex="1">
          <mxGeometry x="81.25" y="870" width="10" height="10" as="geometry" />
        </mxCell>
        <mxCell id="zer_g0Ymn60Sb0Y0c3ZG-58" value="Account" style="text;html=1;align=left;verticalAlign=middle;whiteSpace=wrap;rounded=0;" parent="1" vertex="1">
          <mxGeometry x="98.75" y="860" width="60" height="30" as="geometry" />
        </mxCell>
        <mxCell id="zer_g0Ymn60Sb0Y0c3ZG-59" value="" style="triangle;whiteSpace=wrap;html=1;" parent="1" vertex="1">
          <mxGeometry x="81.25" y="905" width="10" height="10" as="geometry" />
        </mxCell>
        <mxCell id="zer_g0Ymn60Sb0Y0c3ZG-60" value="Event" style="text;html=1;align=left;verticalAlign=middle;whiteSpace=wrap;rounded=0;" parent="1" vertex="1">
          <mxGeometry x="98.75" y="895" width="60" height="30" as="geometry" />
        </mxCell>
        <mxCell id="zer_g0Ymn60Sb0Y0c3ZG-61" value="" style="rounded=0;whiteSpace=wrap;html=1;fillColor=#f5f5f5;strokeColor=#666666;fontColor=#333333;" parent="1" vertex="1">
          <mxGeometry x="218.75" y="160" width="557.5" height="360" as="geometry" />
        </mxCell>
        <mxCell id="zer_g0Ymn60Sb0Y0c3ZG-62" value="" style="sketch=0;pointerEvents=1;shadow=0;dashed=0;html=1;strokeColor=none;fillColor=#505050;labelPosition=center;verticalLabelPosition=bottom;verticalAlign=top;outlineConnect=0;align=center;shape=mxgraph.office.concepts.home;" parent="1" vertex="1">
          <mxGeometry x="228.75" y="210" width="20" height="20" as="geometry" />
        </mxCell>
        <mxCell id="zer_g0Ymn60Sb0Y0c3ZG-63" value="&lt;b style=&quot;font-size: 11px;&quot;&gt;Home&lt;/b&gt;" style="text;html=1;align=center;verticalAlign=middle;whiteSpace=wrap;rounded=0;" parent="1" vertex="1">
          <mxGeometry x="258.75" y="205" width="60" height="30" as="geometry" />
        </mxCell>
        <mxCell id="zer_g0Ymn60Sb0Y0c3ZG-64" value="" style="rounded=0;whiteSpace=wrap;html=1;" parent="1" vertex="1">
          <mxGeometry x="238.75" y="245" width="150" height="230" as="geometry" />
        </mxCell>
        <mxCell id="zer_g0Ymn60Sb0Y0c3ZG-65" value="Photo" style="html=1;whiteSpace=wrap;strokeColor=none;fillColor=#0f0f10;labelPosition=center;verticalLabelPosition=middle;verticalAlign=top;align=center;fontSize=12;outlineConnect=0;spacingTop=-6;fontColor=#FFFFFF;sketch=0;shape=mxgraph.sitemap.photo;" parent="1" vertex="1">
          <mxGeometry x="253.75" y="255" width="120" height="120" as="geometry" />
        </mxCell>
        <mxCell id="zer_g0Ymn60Sb0Y0c3ZG-66" value="Best idea article&amp;nbsp;" style="text;html=1;align=center;verticalAlign=middle;whiteSpace=wrap;rounded=0;" parent="1" vertex="1">
          <mxGeometry x="258.75" y="405" width="115" height="30" as="geometry" />
        </mxCell>
        <mxCell id="zer_g0Ymn60Sb0Y0c3ZG-67" value="" style="rounded=0;whiteSpace=wrap;html=1;" parent="1" vertex="1">
          <mxGeometry x="418.75" y="245" width="150" height="230" as="geometry" />
        </mxCell>
        <mxCell id="zer_g0Ymn60Sb0Y0c3ZG-68" value="Photo" style="html=1;whiteSpace=wrap;strokeColor=none;fillColor=#0f0f10;labelPosition=center;verticalLabelPosition=middle;verticalAlign=top;align=center;fontSize=12;outlineConnect=0;spacingTop=-6;fontColor=#FFFFFF;sketch=0;shape=mxgraph.sitemap.photo;" parent="1" vertex="1">
          <mxGeometry x="433.75" y="255" width="120" height="120" as="geometry" />
        </mxCell>
        <mxCell id="zer_g0Ymn60Sb0Y0c3ZG-69" value="Best student" style="text;html=1;align=center;verticalAlign=middle;whiteSpace=wrap;rounded=0;" parent="1" vertex="1">
          <mxGeometry x="446.25" y="405" width="95" height="30" as="geometry" />
        </mxCell>
        <mxCell id="zer_g0Ymn60Sb0Y0c3ZG-70" value="" style="rounded=0;whiteSpace=wrap;html=1;" parent="1" vertex="1">
          <mxGeometry x="588.75" y="245" width="150" height="230" as="geometry" />
        </mxCell>
        <mxCell id="zer_g0Ymn60Sb0Y0c3ZG-71" value="Photo" style="html=1;whiteSpace=wrap;strokeColor=none;fillColor=#0f0f10;labelPosition=center;verticalLabelPosition=middle;verticalAlign=top;align=center;fontSize=12;outlineConnect=0;spacingTop=-6;fontColor=#FFFFFF;sketch=0;shape=mxgraph.sitemap.photo;" parent="1" vertex="1">
          <mxGeometry x="603.75" y="255" width="120" height="120" as="geometry" />
        </mxCell>
        <mxCell id="zer_g0Ymn60Sb0Y0c3ZG-72" value="Best Coordinator" style="text;html=1;align=center;verticalAlign=middle;whiteSpace=wrap;rounded=0;" parent="1" vertex="1">
          <mxGeometry x="613.75" y="405" width="100" height="30" as="geometry" />
        </mxCell>
        <mxCell id="zer_g0Ymn60Sb0Y0c3ZG-73" value="&lt;b&gt;Home&lt;/b&gt;" style="text;html=1;align=center;verticalAlign=middle;whiteSpace=wrap;rounded=0;" parent="1" vertex="1">
          <mxGeometry x="228.75" y="170" width="60" height="30" as="geometry" />
        </mxCell>
        <mxCell id="zer_g0Ymn60Sb0Y0c3ZG-74" value="" style="rounded=0;whiteSpace=wrap;html=1;fillColor=#f5f5f5;strokeColor=#666666;fontColor=#333333;" parent="1" vertex="1">
          <mxGeometry x="-640" y="670" width="557.5" height="360" as="geometry" />
        </mxCell>
        <mxCell id="zer_g0Ymn60Sb0Y0c3ZG-75" value="&lt;b style=&quot;font-size: 11px;&quot;&gt;List Accounts&lt;/b&gt;" style="text;html=1;align=center;verticalAlign=middle;whiteSpace=wrap;rounded=0;" parent="1" vertex="1">
          <mxGeometry x="-600" y="715" width="95" height="30" as="geometry" />
        </mxCell>
        <mxCell id="zer_g0Ymn60Sb0Y0c3ZG-76" value="Manager Account" style="swimlane;whiteSpace=wrap;html=1;align=left;startSize=55;" parent="1" vertex="1">
          <mxGeometry x="-625" y="745" width="510" height="265" as="geometry">
            <mxRectangle x="510" y="1190" width="130" height="70" as="alternateBounds" />
          </mxGeometry>
        </mxCell>
        <mxCell id="zer_g0Ymn60Sb0Y0c3ZG-77" value="Add account" style="rounded=0;whiteSpace=wrap;html=1;align=center;" parent="zer_g0Ymn60Sb0Y0c3ZG-76" vertex="1">
          <mxGeometry x="372.5" y="7.5" width="132.5" height="35" as="geometry" />
        </mxCell>
        <mxCell id="zer_g0Ymn60Sb0Y0c3ZG-78" value="" style="html=1;verticalLabelPosition=bottom;align=center;labelBackgroundColor=#ffffff;verticalAlign=top;strokeWidth=2;strokeColor=#000000;shadow=0;dashed=0;shape=mxgraph.ios7.icons.add;" parent="zer_g0Ymn60Sb0Y0c3ZG-76" vertex="1">
          <mxGeometry x="382.5" y="15" width="17.5" height="20" as="geometry" />
        </mxCell>
        <mxCell id="zer_g0Ymn60Sb0Y0c3ZG-79" value="#&amp;nbsp; &amp;nbsp; &amp;nbsp; &amp;nbsp; &amp;nbsp; &amp;nbsp; &amp;nbsp; &amp;nbsp; &amp;nbsp; NAME&amp;nbsp; &amp;nbsp; &amp;nbsp; &amp;nbsp; &amp;nbsp; &amp;nbsp; &amp;nbsp; &amp;nbsp;PHOTO&amp;nbsp; &amp;nbsp; &amp;nbsp; &amp;nbsp; &amp;nbsp; &amp;nbsp; &amp;nbsp; &amp;nbsp; &amp;nbsp;GMAIL&amp;nbsp; &amp;nbsp; &amp;nbsp; &amp;nbsp; &amp;nbsp; &amp;nbsp; &amp;nbsp; &amp;nbsp; &amp;nbsp; &amp;nbsp; ROLE&amp;nbsp; &amp;nbsp; &amp;nbsp; &amp;nbsp; &amp;nbsp; &amp;nbsp; &amp;nbsp; &amp;nbsp; ACTION" style="rounded=0;whiteSpace=wrap;html=1;align=left;" parent="zer_g0Ymn60Sb0Y0c3ZG-76" vertex="1">
          <mxGeometry y="50" width="510" height="40" as="geometry" />
        </mxCell>
        <mxCell id="zer_g0Ymn60Sb0Y0c3ZG-80" value="1&amp;nbsp; &amp;nbsp; &amp;nbsp; &amp;nbsp; &amp;nbsp; &amp;nbsp; &amp;nbsp; &amp;nbsp; &amp;nbsp; Tung&amp;nbsp; &amp;nbsp; &amp;nbsp; &amp;nbsp; &amp;nbsp; &amp;nbsp; &amp;nbsp; &amp;nbsp; &amp;nbsp;PHOTO&amp;nbsp; &amp;nbsp; &amp;nbsp; &amp;nbsp; &amp;nbsp;tung@gmail.com&amp;nbsp; &amp;nbsp; &amp;nbsp; &amp;nbsp; &amp;nbsp;Coordinator" style="rounded=0;whiteSpace=wrap;html=1;align=left;" parent="1" vertex="1">
          <mxGeometry x="-625" y="832.5" width="510" height="60" as="geometry" />
        </mxCell>
        <mxCell id="zer_g0Ymn60Sb0Y0c3ZG-81" value="" style="html=1;whiteSpace=wrap;strokeColor=none;fillColor=#0f0f10;labelPosition=center;verticalLabelPosition=middle;verticalAlign=top;align=center;fontSize=12;outlineConnect=0;spacingTop=-6;fontColor=#FFFFFF;sketch=0;shape=mxgraph.sitemap.photo;" parent="1" vertex="1">
          <mxGeometry x="-475" y="845" width="45" height="35" as="geometry" />
        </mxCell>
        <mxCell id="zer_g0Ymn60Sb0Y0c3ZG-82" value="" style="shape=image;verticalLabelPosition=bottom;labelBackgroundColor=default;verticalAlign=top;aspect=fixed;imageAspect=0;image=https://static.vecteezy.com/system/resources/thumbnails/003/241/364/small/trash-bin-icon-line-vector.jpg;" parent="1" vertex="1">
          <mxGeometry x="-172.5" y="840" width="45" height="45" as="geometry" />
        </mxCell>
        <mxCell id="zer_g0Ymn60Sb0Y0c3ZG-83" value="" style="html=1;verticalLabelPosition=bottom;align=center;labelBackgroundColor=#ffffff;verticalAlign=top;strokeWidth=2;strokeColor=#000000;shadow=0;dashed=0;shape=mxgraph.ios7.icons.compose;" parent="1" vertex="1">
          <mxGeometry x="-177.5" y="853.75" width="14.1" height="17.5" as="geometry" />
        </mxCell>
        <mxCell id="zer_g0Ymn60Sb0Y0c3ZG-84" value="2&amp;nbsp; &amp;nbsp; &amp;nbsp; &amp;nbsp; &amp;nbsp; &amp;nbsp; &amp;nbsp; &amp;nbsp; &amp;nbsp; Hung&amp;nbsp; &amp;nbsp; &amp;nbsp; &amp;nbsp; &amp;nbsp; &amp;nbsp; &amp;nbsp; &amp;nbsp; PHO&lt;span style=&quot;color: rgba(0, 0, 0, 0); font-family: monospace; font-size: 0px; text-wrap: nowrap;&quot;&gt;%3CmxGraphModel%3E%3Croot%3E%3CmxCell%20id%3D%220%22%2F%3E%3CmxCell%20id%3D%221%22%20parent%3D%220%22%2F%3E%3CmxCell%20id%3D%222%22%20value%3D%22%22%20style%3D%22html%3D1%3BwhiteSpace%3Dwrap%3BstrokeColor%3Dnone%3BfillColor%3D%230f0f10%3BlabelPosition%3Dcenter%3BverticalLabelPosition%3Dmiddle%3BverticalAlign%3Dtop%3Balign%3Dcenter%3BfontSize%3D12%3BoutlineConnect%3D0%3BspacingTop%3D-6%3BfontColor%3D%23FFFFFF%3Bsketch%3D0%3Bshape%3Dmxgraph.sitemap.photo%3B%22%20vertex%3D%221%22%20parent%3D%221%22%3E%3CmxGeometry%20x%3D%22652.5%22%20y%3D%222182.5%22%20width%3D%2245%22%20height%3D%2235%22%20as%3D%22geometry%22%2F%3E%3C%2FmxCell%3E%3C%2Froot%3E%3C%2FmxGraphModel%3E&lt;/span&gt;TO&amp;nbsp; &amp;nbsp; &amp;nbsp; &amp;nbsp; hung@gmail.com&amp;nbsp; &amp;nbsp; &amp;nbsp; &amp;nbsp; &amp;nbsp; &amp;nbsp;Student" style="rounded=0;whiteSpace=wrap;html=1;align=left;" parent="1" vertex="1">
          <mxGeometry x="-625" y="892.5" width="510" height="60" as="geometry" />
        </mxCell>
        <mxCell id="zer_g0Ymn60Sb0Y0c3ZG-85" value="" style="html=1;whiteSpace=wrap;strokeColor=none;fillColor=#0f0f10;labelPosition=center;verticalLabelPosition=middle;verticalAlign=top;align=center;fontSize=12;outlineConnect=0;spacingTop=-6;fontColor=#FFFFFF;sketch=0;shape=mxgraph.sitemap.photo;" parent="1" vertex="1">
          <mxGeometry x="-475" y="905" width="45" height="35" as="geometry" />
        </mxCell>
        <mxCell id="zer_g0Ymn60Sb0Y0c3ZG-86" value="" style="shape=image;verticalLabelPosition=bottom;labelBackgroundColor=default;verticalAlign=top;aspect=fixed;imageAspect=0;image=https://static.vecteezy.com/system/resources/thumbnails/003/241/364/small/trash-bin-icon-line-vector.jpg;" parent="1" vertex="1">
          <mxGeometry x="-172.5" y="900" width="45" height="45" as="geometry" />
        </mxCell>
        <mxCell id="zer_g0Ymn60Sb0Y0c3ZG-87" value="" style="html=1;verticalLabelPosition=bottom;align=center;labelBackgroundColor=#ffffff;verticalAlign=top;strokeWidth=2;strokeColor=#000000;shadow=0;dashed=0;shape=mxgraph.ios7.icons.compose;" parent="1" vertex="1">
          <mxGeometry x="-177.5" y="913.75" width="14.1" height="17.5" as="geometry" />
        </mxCell>
        <mxCell id="zer_g0Ymn60Sb0Y0c3ZG-88" value="3&amp;nbsp; &amp;nbsp; &amp;nbsp; &amp;nbsp; &amp;nbsp; &amp;nbsp; &amp;nbsp; &amp;nbsp; &amp;nbsp; Tam&amp;nbsp; &amp;nbsp; &amp;nbsp; &amp;nbsp; &amp;nbsp; &amp;nbsp; &amp;nbsp; &amp;nbsp; &amp;nbsp; PHO&lt;span style=&quot;color: rgba(0, 0, 0, 0); font-family: monospace; font-size: 0px; text-wrap: nowrap;&quot;&gt;%3CmxGraphModel%3E%3Croot%3E%3CmxCell%20id%3D%220%22%2F%3E%3CmxCell%20id%3D%221%22%20parent%3D%220%22%2F%3E%3CmxCell%20id%3D%222%22%20value%3D%22%22%20style%3D%22html%3D1%3BwhiteSpace%3Dwrap%3BstrokeColor%3Dnone%3BfillColor%3D%230f0f10%3BlabelPosition%3Dcenter%3BverticalLabelPosition%3Dmiddle%3BverticalAlign%3Dtop%3Balign%3Dcenter%3BfontSize%3D12%3BoutlineConnect%3D0%3BspacingTop%3D-6%3BfontColor%3D%23FFFFFF%3Bsketch%3D0%3Bshape%3Dmxgraph.sitemap.photo%3B%22%20vertex%3D%221%22%20parent%3D%221%22%3E%3CmxGeometry%20x%3D%22652.5%22%20y%3D%222182.5%22%20width%3D%2245%22%20height%3D%2235%22%20as%3D%22geometry%22%2F%3E%3C%2FmxCell%3E%3C%2Froot%3E%3C%2FmxGraphModel%3E&lt;/span&gt;TO&amp;nbsp; &amp;nbsp; &amp;nbsp; &amp;nbsp; tam@gmail.com&amp;nbsp; &amp;nbsp; &amp;nbsp; &amp;nbsp; &amp;nbsp; &amp;nbsp; Manager" style="rounded=0;whiteSpace=wrap;html=1;align=left;" parent="1" vertex="1">
          <mxGeometry x="-625" y="952.5" width="510" height="60" as="geometry" />
        </mxCell>
        <mxCell id="zer_g0Ymn60Sb0Y0c3ZG-89" value="" style="html=1;whiteSpace=wrap;strokeColor=none;fillColor=#0f0f10;labelPosition=center;verticalLabelPosition=middle;verticalAlign=top;align=center;fontSize=12;outlineConnect=0;spacingTop=-6;fontColor=#FFFFFF;sketch=0;shape=mxgraph.sitemap.photo;" parent="1" vertex="1">
          <mxGeometry x="-475" y="965" width="45" height="35" as="geometry" />
        </mxCell>
        <mxCell id="zer_g0Ymn60Sb0Y0c3ZG-90" value="" style="shape=image;verticalLabelPosition=bottom;labelBackgroundColor=default;verticalAlign=top;aspect=fixed;imageAspect=0;image=https://static.vecteezy.com/system/resources/thumbnails/003/241/364/small/trash-bin-icon-line-vector.jpg;" parent="1" vertex="1">
          <mxGeometry x="-172.5" y="960" width="45" height="45" as="geometry" />
        </mxCell>
        <mxCell id="zer_g0Ymn60Sb0Y0c3ZG-91" value="" style="html=1;verticalLabelPosition=bottom;align=center;labelBackgroundColor=#ffffff;verticalAlign=top;strokeWidth=2;strokeColor=#000000;shadow=0;dashed=0;shape=mxgraph.ios7.icons.compose;" parent="1" vertex="1">
          <mxGeometry x="-177.5" y="973.75" width="14.1" height="17.5" as="geometry" />
        </mxCell>
        <mxCell id="zer_g0Ymn60Sb0Y0c3ZG-92" value="" style="sketch=0;pointerEvents=1;shadow=0;dashed=0;html=1;strokeColor=none;fillColor=#505050;labelPosition=center;verticalLabelPosition=bottom;verticalAlign=top;outlineConnect=0;align=center;shape=mxgraph.office.concepts.home;" parent="1" vertex="1">
          <mxGeometry x="-622.5" y="720" width="20" height="20" as="geometry" />
        </mxCell>
        <mxCell id="zer_g0Ymn60Sb0Y0c3ZG-93" value="&lt;b&gt;List Accounts&lt;/b&gt;" style="text;html=1;align=center;verticalAlign=middle;whiteSpace=wrap;rounded=0;" parent="1" vertex="1">
          <mxGeometry x="-622.5" y="685" width="85" height="30" as="geometry" />
        </mxCell>
        <mxCell id="zer_g0Ymn60Sb0Y0c3ZG-94" value="" style="rounded=0;whiteSpace=wrap;html=1;fillColor=#f5f5f5;strokeColor=#666666;fontColor=#333333;" parent="1" vertex="1">
          <mxGeometry x="1020" y="160" width="560" height="360" as="geometry" />
        </mxCell>
        <mxCell id="zer_g0Ymn60Sb0Y0c3ZG-95" value="" style="sketch=0;pointerEvents=1;shadow=0;dashed=0;html=1;strokeColor=none;fillColor=#505050;labelPosition=center;verticalLabelPosition=bottom;verticalAlign=top;outlineConnect=0;align=center;shape=mxgraph.office.concepts.home;" parent="1" vertex="1">
          <mxGeometry x="1030" y="210" width="20" height="20" as="geometry" />
        </mxCell>
        <mxCell id="zer_g0Ymn60Sb0Y0c3ZG-96" value="&lt;b&gt;Dashboard&lt;/b&gt;" style="text;html=1;align=center;verticalAlign=middle;whiteSpace=wrap;rounded=0;" parent="1" vertex="1">
          <mxGeometry x="1030" y="175" width="60" height="30" as="geometry" />
        </mxCell>
        <mxCell id="zer_g0Ymn60Sb0Y0c3ZG-97" value="&lt;b style=&quot;font-size: 11px;&quot;&gt;Dashboard&lt;/b&gt;" style="text;html=1;align=center;verticalAlign=middle;whiteSpace=wrap;rounded=0;" parent="1" vertex="1">
          <mxGeometry x="1060" y="205" width="60" height="30" as="geometry" />
        </mxCell>
        <mxCell id="zer_g0Ymn60Sb0Y0c3ZG-98" value="" style="rounded=0;whiteSpace=wrap;html=1;" parent="1" vertex="1">
          <mxGeometry x="1050" y="240" width="212.5" height="110" as="geometry" />
        </mxCell>
        <mxCell id="zer_g0Ymn60Sb0Y0c3ZG-99" value="" style="endArrow=none;html=1;rounded=0;exitX=0;exitY=0.5;exitDx=0;exitDy=0;entryX=1;entryY=0.5;entryDx=0;entryDy=0;" parent="1" source="zer_g0Ymn60Sb0Y0c3ZG-98" target="zer_g0Ymn60Sb0Y0c3ZG-98" edge="1">
          <mxGeometry width="50" height="50" relative="1" as="geometry">
            <mxPoint x="1152.5" y="345" as="sourcePoint" />
            <mxPoint x="1132.5" y="305" as="targetPoint" />
          </mxGeometry>
        </mxCell>
        <mxCell id="zer_g0Ymn60Sb0Y0c3ZG-100" value="" style="endArrow=none;html=1;rounded=0;exitX=0.5;exitY=1;exitDx=0;exitDy=0;" parent="1" source="zer_g0Ymn60Sb0Y0c3ZG-98" edge="1">
          <mxGeometry width="50" height="50" relative="1" as="geometry">
            <mxPoint x="1152.5" y="345" as="sourcePoint" />
            <mxPoint x="1156.5" y="295" as="targetPoint" />
          </mxGeometry>
        </mxCell>
        <mxCell id="zer_g0Ymn60Sb0Y0c3ZG-101" value="" style="shape=image;html=1;verticalAlign=top;verticalLabelPosition=bottom;labelBackgroundColor=#ffffff;imageAspect=0;aspect=fixed;image=https://cdn0.iconfinder.com/data/icons/evericons-24px-vol-1/24/eye-128.png" parent="1" vertex="1">
          <mxGeometry x="1057.5" y="257.5" width="20" height="20" as="geometry" />
        </mxCell>
        <mxCell id="zer_g0Ymn60Sb0Y0c3ZG-102" value="number of course" style="text;html=1;align=center;verticalAlign=middle;whiteSpace=wrap;rounded=0;" parent="1" vertex="1">
          <mxGeometry x="1192.5" y="310" width="60" height="30" as="geometry" />
        </mxCell>
        <mxCell id="zer_g0Ymn60Sb0Y0c3ZG-103" value="number of students" style="text;html=1;align=center;verticalAlign=middle;whiteSpace=wrap;rounded=0;" parent="1" vertex="1">
          <mxGeometry x="1106.25" y="252.5" width="106.25" height="30" as="geometry" />
        </mxCell>
        <mxCell id="zer_g0Ymn60Sb0Y0c3ZG-104" value="" style="shape=image;html=1;verticalAlign=top;verticalLabelPosition=bottom;labelBackgroundColor=#ffffff;imageAspect=0;aspect=fixed;image=https://cdn4.iconfinder.com/data/icons/48-bubbles/48/12.File-128.png" parent="1" vertex="1">
          <mxGeometry x="1057.5" y="315" width="20" height="20" as="geometry" />
        </mxCell>
        <mxCell id="zer_g0Ymn60Sb0Y0c3ZG-105" value="number of post" style="text;html=1;align=center;verticalAlign=middle;whiteSpace=wrap;rounded=0;" parent="1" vertex="1">
          <mxGeometry x="1077.5" y="310" width="50" height="30" as="geometry" />
        </mxCell>
        <mxCell id="zer_g0Ymn60Sb0Y0c3ZG-106" value="" style="shape=message;html=1;html=1;outlineConnect=0;labelPosition=center;verticalLabelPosition=bottom;align=center;verticalAlign=top;" parent="1" vertex="1">
          <mxGeometry x="1165" y="320" width="20" height="10" as="geometry" />
        </mxCell>
        <mxCell id="zer_g0Ymn60Sb0Y0c3ZG-107" value="" style="rounded=0;whiteSpace=wrap;html=1;" parent="1" vertex="1">
          <mxGeometry x="1320" y="240" width="212.5" height="110" as="geometry" />
        </mxCell>
        <mxCell id="zer_g0Ymn60Sb0Y0c3ZG-108" value="" style="endArrow=none;html=1;rounded=0;exitX=0;exitY=0.5;exitDx=0;exitDy=0;entryX=1;entryY=0.5;entryDx=0;entryDy=0;" parent="1" source="zer_g0Ymn60Sb0Y0c3ZG-107" target="zer_g0Ymn60Sb0Y0c3ZG-107" edge="1">
          <mxGeometry width="50" height="50" relative="1" as="geometry">
            <mxPoint x="1422.5" y="345" as="sourcePoint" />
            <mxPoint x="1402.5" y="305" as="targetPoint" />
          </mxGeometry>
        </mxCell>
        <mxCell id="zer_g0Ymn60Sb0Y0c3ZG-109" value="" style="endArrow=none;html=1;rounded=0;exitX=0.5;exitY=1;exitDx=0;exitDy=0;" parent="1" source="zer_g0Ymn60Sb0Y0c3ZG-107" edge="1">
          <mxGeometry width="50" height="50" relative="1" as="geometry">
            <mxPoint x="1422.5" y="345" as="sourcePoint" />
            <mxPoint x="1426.5" y="295" as="targetPoint" />
          </mxGeometry>
        </mxCell>
        <mxCell id="zer_g0Ymn60Sb0Y0c3ZG-110" value="" style="shape=image;html=1;verticalAlign=top;verticalLabelPosition=bottom;labelBackgroundColor=#ffffff;imageAspect=0;aspect=fixed;image=https://cdn0.iconfinder.com/data/icons/evericons-24px-vol-1/24/eye-128.png" parent="1" vertex="1">
          <mxGeometry x="1327.5" y="257.5" width="20" height="20" as="geometry" />
        </mxCell>
        <mxCell id="zer_g0Ymn60Sb0Y0c3ZG-111" value="number of missing comment" style="text;html=1;align=center;verticalAlign=middle;whiteSpace=wrap;rounded=0;" parent="1" vertex="1">
          <mxGeometry x="1462.5" y="310" width="60" height="30" as="geometry" />
        </mxCell>
        <mxCell id="zer_g0Ymn60Sb0Y0c3ZG-112" value="number of coordinator" style="text;html=1;align=center;verticalAlign=middle;whiteSpace=wrap;rounded=0;" parent="1" vertex="1">
          <mxGeometry x="1376.25" y="252.5" width="126.25" height="30" as="geometry" />
        </mxCell>
        <mxCell id="zer_g0Ymn60Sb0Y0c3ZG-113" value="" style="shape=image;html=1;verticalAlign=top;verticalLabelPosition=bottom;labelBackgroundColor=#ffffff;imageAspect=0;aspect=fixed;image=https://cdn4.iconfinder.com/data/icons/48-bubbles/48/12.File-128.png" parent="1" vertex="1">
          <mxGeometry x="1327.5" y="315" width="20" height="20" as="geometry" />
        </mxCell>
        <mxCell id="zer_g0Ymn60Sb0Y0c3ZG-114" value="number of comment" style="text;html=1;align=center;verticalAlign=middle;whiteSpace=wrap;rounded=0;" parent="1" vertex="1">
          <mxGeometry x="1347.5" y="310" width="65" height="30" as="geometry" />
        </mxCell>
        <mxCell id="zer_g0Ymn60Sb0Y0c3ZG-115" value="" style="shape=message;html=1;html=1;outlineConnect=0;labelPosition=center;verticalLabelPosition=bottom;align=center;verticalAlign=top;" parent="1" vertex="1">
          <mxGeometry x="1435" y="320" width="20" height="10" as="geometry" />
        </mxCell>
        <mxCell id="zer_g0Ymn60Sb0Y0c3ZG-116" value="" style="rounded=0;whiteSpace=wrap;html=1;" parent="1" vertex="1">
          <mxGeometry x="1195" y="417.5" width="212.5" height="50" as="geometry" />
        </mxCell>
        <mxCell id="zer_g0Ymn60Sb0Y0c3ZG-117" value="" style="shape=image;html=1;verticalAlign=top;verticalLabelPosition=bottom;labelBackgroundColor=#ffffff;imageAspect=0;aspect=fixed;image=https://cdn0.iconfinder.com/data/icons/evericons-24px-vol-1/24/eye-128.png" parent="1" vertex="1">
          <mxGeometry x="1207.5" y="432.5" width="20" height="20" as="geometry" />
        </mxCell>
        <mxCell id="zer_g0Ymn60Sb0Y0c3ZG-118" value="number of marketing manager" style="text;html=1;align=center;verticalAlign=middle;whiteSpace=wrap;rounded=0;" parent="1" vertex="1">
          <mxGeometry x="1252.5" y="427.5" width="106.25" height="30" as="geometry" />
        </mxCell>
        <mxCell id="zer_g0Ymn60Sb0Y0c3ZG-119" value="Create new student" style="rounded=0;whiteSpace=wrap;html=1;" parent="1" vertex="1">
          <mxGeometry x="1050" y="350" width="212.5" height="30" as="geometry" />
        </mxCell>
        <mxCell id="zer_g0Ymn60Sb0Y0c3ZG-120" value="" style="shape=actor;whiteSpace=wrap;html=1;" parent="1" vertex="1">
          <mxGeometry x="1057.5" y="357.5" width="20" height="15" as="geometry" />
        </mxCell>
        <mxCell id="zer_g0Ymn60Sb0Y0c3ZG-121" value="Create new coordinator" style="rounded=0;whiteSpace=wrap;html=1;" parent="1" vertex="1">
          <mxGeometry x="1320" y="350" width="212.5" height="30" as="geometry" />
        </mxCell>
        <mxCell id="zer_g0Ymn60Sb0Y0c3ZG-122" value="" style="shape=actor;whiteSpace=wrap;html=1;" parent="1" vertex="1">
          <mxGeometry x="1327.5" y="357.5" width="20" height="15" as="geometry" />
        </mxCell>
        <mxCell id="zer_g0Ymn60Sb0Y0c3ZG-123" value="Create new manager" style="rounded=0;whiteSpace=wrap;html=1;" parent="1" vertex="1">
          <mxGeometry x="1195" y="467.5" width="212.5" height="27.5" as="geometry" />
        </mxCell>
        <mxCell id="zer_g0Ymn60Sb0Y0c3ZG-124" value="" style="shape=actor;whiteSpace=wrap;html=1;" parent="1" vertex="1">
          <mxGeometry x="1207.5" y="473.75" width="20" height="15" as="geometry" />
        </mxCell>
        <mxCell id="zer_g0Ymn60Sb0Y0c3ZG-125" value="" style="rounded=0;whiteSpace=wrap;html=1;fillColor=#f5f5f5;strokeColor=#666666;fontColor=#333333;" parent="1" vertex="1">
          <mxGeometry x="218.75" y="670" width="567.5" height="360" as="geometry" />
        </mxCell>
        <mxCell id="zer_g0Ymn60Sb0Y0c3ZG-126" value="" style="sketch=0;pointerEvents=1;shadow=0;dashed=0;html=1;strokeColor=none;fillColor=#505050;labelPosition=center;verticalLabelPosition=bottom;verticalAlign=top;outlineConnect=0;align=center;shape=mxgraph.office.concepts.home;" parent="1" vertex="1">
          <mxGeometry x="228.75" y="720" width="20" height="20" as="geometry" />
        </mxCell>
        <mxCell id="zer_g0Ymn60Sb0Y0c3ZG-127" value="&lt;b&gt;List Accounts&lt;/b&gt;" style="text;html=1;align=center;verticalAlign=middle;whiteSpace=wrap;rounded=0;" parent="1" vertex="1">
          <mxGeometry x="228.75" y="685" width="85" height="30" as="geometry" />
        </mxCell>
        <mxCell id="zer_g0Ymn60Sb0Y0c3ZG-128" value="&lt;span style=&quot;font-size: 11px;&quot;&gt;&lt;b&gt;Add an account&lt;/b&gt;&lt;/span&gt;" style="text;html=1;align=center;verticalAlign=middle;whiteSpace=wrap;rounded=0;" parent="1" vertex="1">
          <mxGeometry x="258.75" y="715" width="95" height="30" as="geometry" />
        </mxCell>
        <mxCell id="zer_g0Ymn60Sb0Y0c3ZG-129" value="Add a User" style="swimlane;whiteSpace=wrap;html=1;align=left;startSize=40;" parent="1" vertex="1">
          <mxGeometry x="238.75" y="749" width="510" height="261" as="geometry">
            <mxRectangle x="512.5" y="2129" width="130" height="70" as="alternateBounds" />
          </mxGeometry>
        </mxCell>
        <mxCell id="zer_g0Ymn60Sb0Y0c3ZG-130" value="" style="rounded=0;whiteSpace=wrap;html=1;" parent="zer_g0Ymn60Sb0Y0c3ZG-129" vertex="1">
          <mxGeometry x="22.5" y="116" width="200" height="25" as="geometry" />
        </mxCell>
        <mxCell id="zer_g0Ymn60Sb0Y0c3ZG-131" value="Password" style="text;html=1;align=left;verticalAlign=middle;whiteSpace=wrap;rounded=0;" parent="zer_g0Ymn60Sb0Y0c3ZG-129" vertex="1">
          <mxGeometry x="22.5" y="91" width="60" height="30" as="geometry" />
        </mxCell>
        <mxCell id="zer_g0Ymn60Sb0Y0c3ZG-132" value="Name" style="text;html=1;align=left;verticalAlign=middle;whiteSpace=wrap;rounded=0;" parent="zer_g0Ymn60Sb0Y0c3ZG-129" vertex="1">
          <mxGeometry x="22.5" y="41" width="60" height="30" as="geometry" />
        </mxCell>
        <mxCell id="zer_g0Ymn60Sb0Y0c3ZG-133" value="Email address" style="text;html=1;align=left;verticalAlign=middle;whiteSpace=wrap;rounded=0;" parent="zer_g0Ymn60Sb0Y0c3ZG-129" vertex="1">
          <mxGeometry x="277.5" y="41" width="95" height="30" as="geometry" />
        </mxCell>
        <mxCell id="zer_g0Ymn60Sb0Y0c3ZG-134" value="" style="rounded=0;whiteSpace=wrap;html=1;" parent="zer_g0Ymn60Sb0Y0c3ZG-129" vertex="1">
          <mxGeometry x="277.5" y="66" width="200" height="25" as="geometry" />
        </mxCell>
        <mxCell id="zer_g0Ymn60Sb0Y0c3ZG-135" value="Select a Role" style="text;html=1;align=left;verticalAlign=middle;whiteSpace=wrap;rounded=0;" parent="zer_g0Ymn60Sb0Y0c3ZG-129" vertex="1">
          <mxGeometry x="277.5" y="91" width="95" height="30" as="geometry" />
        </mxCell>
        <mxCell id="zer_g0Ymn60Sb0Y0c3ZG-136" value="" style="rounded=0;whiteSpace=wrap;html=1;" parent="zer_g0Ymn60Sb0Y0c3ZG-129" vertex="1">
          <mxGeometry x="277.5" y="116" width="200" height="25" as="geometry" />
        </mxCell>
        <mxCell id="zer_g0Ymn60Sb0Y0c3ZG-137" value="" style="endArrow=none;html=1;rounded=0;exitX=0.25;exitY=1;exitDx=0;exitDy=0;entryX=0.25;entryY=0;entryDx=0;entryDy=0;" parent="zer_g0Ymn60Sb0Y0c3ZG-129" source="zer_g0Ymn60Sb0Y0c3ZG-136" target="zer_g0Ymn60Sb0Y0c3ZG-136" edge="1">
          <mxGeometry width="50" height="50" relative="1" as="geometry">
            <mxPoint x="90" y="211" as="sourcePoint" />
            <mxPoint x="325" y="221" as="targetPoint" />
          </mxGeometry>
        </mxCell>
        <mxCell id="zer_g0Ymn60Sb0Y0c3ZG-138" value="" style="shape=image;html=1;verticalAlign=top;verticalLabelPosition=bottom;labelBackgroundColor=#ffffff;imageAspect=0;aspect=fixed;image=https://cdn4.iconfinder.com/data/icons/ionicons/512/icon-arrow-down-b-128.png;direction=west;" parent="zer_g0Ymn60Sb0Y0c3ZG-129" vertex="1">
          <mxGeometry x="457.5" y="121" width="8" height="8" as="geometry" />
        </mxCell>
        <mxCell id="zer_g0Ymn60Sb0Y0c3ZG-139" value="" style="shape=image;html=1;verticalAlign=top;verticalLabelPosition=bottom;labelBackgroundColor=#ffffff;imageAspect=0;aspect=fixed;image=https://cdn4.iconfinder.com/data/icons/ionicons/512/icon-arrow-down-b-128.png" parent="zer_g0Ymn60Sb0Y0c3ZG-129" vertex="1">
          <mxGeometry x="457.5" y="129" width="8" height="8" as="geometry" />
        </mxCell>
        <mxCell id="zer_g0Ymn60Sb0Y0c3ZG-140" value="Role" style="text;html=1;align=center;verticalAlign=middle;whiteSpace=wrap;rounded=0;" parent="zer_g0Ymn60Sb0Y0c3ZG-129" vertex="1">
          <mxGeometry x="277.5" y="118.5" width="50" height="22.5" as="geometry" />
        </mxCell>
        <mxCell id="zer_g0Ymn60Sb0Y0c3ZG-141" value="Photo" style="text;html=1;align=left;verticalAlign=middle;whiteSpace=wrap;rounded=0;" parent="zer_g0Ymn60Sb0Y0c3ZG-129" vertex="1">
          <mxGeometry x="22.5" y="141" width="60" height="30" as="geometry" />
        </mxCell>
        <mxCell id="zer_g0Ymn60Sb0Y0c3ZG-142" value="Choose file" style="rounded=0;whiteSpace=wrap;html=1;align=left;" parent="zer_g0Ymn60Sb0Y0c3ZG-129" vertex="1">
          <mxGeometry x="22.5" y="171" width="200" height="25" as="geometry" />
        </mxCell>
        <mxCell id="zer_g0Ymn60Sb0Y0c3ZG-143" value="" style="endArrow=none;html=1;rounded=0;exitX=0.75;exitY=1;exitDx=0;exitDy=0;entryX=0.75;entryY=0;entryDx=0;entryDy=0;" parent="zer_g0Ymn60Sb0Y0c3ZG-129" source="zer_g0Ymn60Sb0Y0c3ZG-142" target="zer_g0Ymn60Sb0Y0c3ZG-142" edge="1">
          <mxGeometry width="50" height="50" relative="1" as="geometry">
            <mxPoint x="192.5" y="121" as="sourcePoint" />
            <mxPoint x="242.5" y="71" as="targetPoint" />
          </mxGeometry>
        </mxCell>
        <mxCell id="zer_g0Ymn60Sb0Y0c3ZG-144" value="Browse" style="text;html=1;align=center;verticalAlign=middle;whiteSpace=wrap;rounded=0;" parent="zer_g0Ymn60Sb0Y0c3ZG-129" vertex="1">
          <mxGeometry x="172.5" y="173.5" width="50" height="20" as="geometry" />
        </mxCell>
        <mxCell id="zer_g0Ymn60Sb0Y0c3ZG-145" value="Submit" style="html=1;shadow=0;dashed=0;shape=mxgraph.bootstrap.rrect;rSize=5;strokeColor=none;strokeWidth=1;fillColor=#33A64C;fontColor=#FFFFFF;whiteSpace=wrap;align=center;verticalAlign=middle;spacingLeft=0;fontStyle=0;fontSize=16;spacing=5;" parent="zer_g0Ymn60Sb0Y0c3ZG-129" vertex="1">
          <mxGeometry x="22.5" y="221" width="60" height="30" as="geometry" />
        </mxCell>
        <mxCell id="zer_g0Ymn60Sb0Y0c3ZG-146" value="" style="rounded=0;whiteSpace=wrap;html=1;" parent="zer_g0Ymn60Sb0Y0c3ZG-129" vertex="1">
          <mxGeometry x="22.5" y="66" width="197.5" height="25" as="geometry" />
        </mxCell>
        <mxCell id="zer_g0Ymn60Sb0Y0c3ZG-147" value="" style="rounded=0;whiteSpace=wrap;html=1;" parent="1" vertex="1">
          <mxGeometry x="-800" y="82.5" width="717.5" height="430" as="geometry" />
        </mxCell>
        <mxCell id="zer_g0Ymn60Sb0Y0c3ZG-148" value="" style="curved=1;endArrow=none;html=1;rounded=0;exitX=0;exitY=1;exitDx=0;exitDy=0;entryX=0.5;entryY=0;entryDx=0;entryDy=0;endFill=0;" parent="1" source="zer_g0Ymn60Sb0Y0c3ZG-147" target="zer_g0Ymn60Sb0Y0c3ZG-147" edge="1">
          <mxGeometry width="50" height="50" relative="1" as="geometry">
            <mxPoint x="-490" y="312.5" as="sourcePoint" />
            <mxPoint x="-440" y="262.5" as="targetPoint" />
            <Array as="points">
              <mxPoint x="-540" y="492.5" />
              <mxPoint x="-440" y="312.5" />
            </Array>
          </mxGeometry>
        </mxCell>
        <mxCell id="zer_g0Ymn60Sb0Y0c3ZG-149" value="&lt;font style=&quot;font-size: 22px;&quot;&gt;Admin Login&lt;/font&gt;" style="text;html=1;align=center;verticalAlign=middle;whiteSpace=wrap;rounded=0;" parent="1" vertex="1">
          <mxGeometry x="-740" y="252.5" width="130" height="30" as="geometry" />
        </mxCell>
        <mxCell id="zer_g0Ymn60Sb0Y0c3ZG-150" value="Visit the school&#39;s website to come up with unique andcreative ideas to create a better future!" style="text;html=1;align=left;verticalAlign=middle;whiteSpace=wrap;rounded=0;" parent="1" vertex="1">
          <mxGeometry x="-740" y="297.5" width="270" height="30" as="geometry" />
        </mxCell>
        <mxCell id="zer_g0Ymn60Sb0Y0c3ZG-151" value="" style="rounded=1;whiteSpace=wrap;html=1;" parent="1" vertex="1">
          <mxGeometry x="-430" y="197.5" width="330" height="230" as="geometry" />
        </mxCell>
        <mxCell id="zer_g0Ymn60Sb0Y0c3ZG-152" value="" style="rounded=1;whiteSpace=wrap;html=1;fillColor=#dae8fc;strokeColor=#6c8ebf;" parent="1" vertex="1">
          <mxGeometry x="-410" y="212.5" width="280" height="35" as="geometry" />
        </mxCell>
        <mxCell id="zer_g0Ymn60Sb0Y0c3ZG-153" value="" style="rounded=1;whiteSpace=wrap;html=1;fillColor=#dae8fc;strokeColor=#6c8ebf;" parent="1" vertex="1">
          <mxGeometry x="-410" y="257.5" width="280" height="35" as="geometry" />
        </mxCell>
        <mxCell id="zer_g0Ymn60Sb0Y0c3ZG-154" value="Sign in" style="html=1;shadow=0;dashed=0;shape=mxgraph.bootstrap.rrect;rSize=5;strokeColor=none;strokeWidth=1;fillColor=#33A64C;fontColor=#FFFFFF;whiteSpace=wrap;align=center;verticalAlign=middle;spacingLeft=0;fontStyle=0;fontSize=16;spacing=5;" parent="1" vertex="1">
          <mxGeometry x="-410" y="302.5" width="280" height="30" as="geometry" />
        </mxCell>
        <mxCell id="zer_g0Ymn60Sb0Y0c3ZG-155" value="" style="shape=actor;whiteSpace=wrap;html=1;fillColor=#000000;" parent="1" vertex="1">
          <mxGeometry x="-400" y="222.5" width="20" height="15" as="geometry" />
        </mxCell>
        <mxCell id="zer_g0Ymn60Sb0Y0c3ZG-156" value="" style="sketch=0;pointerEvents=1;shadow=0;dashed=0;html=1;strokeColor=none;fillColor=#000000;labelPosition=center;verticalLabelPosition=bottom;verticalAlign=top;outlineConnect=0;align=center;shape=mxgraph.office.security.lock_protected;" parent="1" vertex="1">
          <mxGeometry x="-400" y="265" width="20" height="20" as="geometry" />
        </mxCell>
        <mxCell id="zer_g0Ymn60Sb0Y0c3ZG-157" value="Don&#39;t have an Admin&#39;s account ? &lt;font color=&quot;#6666ff&quot;&gt;&lt;u&gt;click here&lt;/u&gt;&lt;/font&gt;" style="text;html=1;align=center;verticalAlign=middle;whiteSpace=wrap;rounded=0;" parent="1" vertex="1">
          <mxGeometry x="-410" y="342.5" width="280" height="20" as="geometry" />
        </mxCell>
        <mxCell id="zer_g0Ymn60Sb0Y0c3ZG-158" value="&lt;font color=&quot;#6666ff&quot;&gt;&lt;u&gt;Marketing Manager Login&lt;/u&gt;&lt;/font&gt;" style="text;html=1;align=center;verticalAlign=middle;whiteSpace=wrap;rounded=0;" parent="1" vertex="1">
          <mxGeometry x="-410" y="362.5" width="280" height="20" as="geometry" />
        </mxCell>
        <mxCell id="zer_g0Ymn60Sb0Y0c3ZG-159" value="&lt;font color=&quot;#6666ff&quot;&gt;&lt;u&gt;Marketing Coordinator Login&lt;/u&gt;&lt;/font&gt;" style="text;html=1;align=center;verticalAlign=middle;whiteSpace=wrap;rounded=0;" parent="1" vertex="1">
          <mxGeometry x="-410" y="382.5" width="280" height="20" as="geometry" />
        </mxCell>
        <mxCell id="zer_g0Ymn60Sb0Y0c3ZG-160" value="&lt;font color=&quot;#6666ff&quot;&gt;&lt;u&gt;Student Login&lt;/u&gt;&lt;/font&gt;" style="text;html=1;align=center;verticalAlign=middle;whiteSpace=wrap;rounded=0;" parent="1" vertex="1">
          <mxGeometry x="-410" y="402.5" width="280" height="20" as="geometry" />
        </mxCell>
        <mxCell id="M22AqNSWTO_a_4odQbLV-1" value="" style="rounded=0;whiteSpace=wrap;html=1;" parent="1" vertex="1">
          <mxGeometry x="862.5" y="600" width="717.5" height="70" as="geometry" />
        </mxCell>
        <mxCell id="M22AqNSWTO_a_4odQbLV-2" value="" style="rounded=0;whiteSpace=wrap;html=1;" parent="1" vertex="1">
          <mxGeometry x="862.5" y="670" width="160" height="360" as="geometry" />
        </mxCell>
        <mxCell id="M22AqNSWTO_a_4odQbLV-3" value="" style="rounded=0;whiteSpace=wrap;html=1;" parent="1" vertex="1">
          <mxGeometry x="862.5" y="670" width="160" height="60" as="geometry" />
        </mxCell>
        <mxCell id="M22AqNSWTO_a_4odQbLV-4" value="" style="shape=actor;whiteSpace=wrap;html=1;" parent="1" vertex="1">
          <mxGeometry x="1517.5" y="630" width="20" height="15" as="geometry" />
        </mxCell>
        <mxCell id="M22AqNSWTO_a_4odQbLV-5" value="" style="html=1;verticalLabelPosition=bottom;align=center;labelBackgroundColor=#ffffff;verticalAlign=top;strokeWidth=2;strokeColor=#000000;shadow=0;dashed=0;shape=mxgraph.ios7.icons.bell;" parent="1" vertex="1">
          <mxGeometry x="1452.5" y="632.5" width="20" height="10" as="geometry" />
        </mxCell>
        <mxCell id="M22AqNSWTO_a_4odQbLV-6" value="" style="sketch=0;pointerEvents=1;shadow=0;dashed=0;html=1;strokeColor=none;fillColor=#505050;labelPosition=center;verticalLabelPosition=bottom;verticalAlign=top;outlineConnect=0;align=center;shape=mxgraph.office.concepts.home;" parent="1" vertex="1">
          <mxGeometry x="872.5" y="685" width="30" height="30" as="geometry" />
        </mxCell>
        <mxCell id="M22AqNSWTO_a_4odQbLV-7" value="Admin Page" style="text;html=1;align=center;verticalAlign=middle;whiteSpace=wrap;rounded=0;" parent="1" vertex="1">
          <mxGeometry x="902.5" y="685" width="90" height="30" as="geometry" />
        </mxCell>
        <mxCell id="M22AqNSWTO_a_4odQbLV-8" value="" style="shape=image;verticalLabelPosition=bottom;labelBackgroundColor=default;verticalAlign=top;aspect=fixed;imageAspect=0;image=https://images.rawpixel.com/image_png_social_square/czNmcy1wcml2YXRlL3Jhd3BpeGVsX2ltYWdlcy93ZWJzaXRlX2NvbnRlbnQvbHIvdjk5My00MC5wbmc.png;" parent="1" vertex="1">
          <mxGeometry x="870" y="780" width="20" height="20" as="geometry" />
        </mxCell>
        <mxCell id="M22AqNSWTO_a_4odQbLV-9" value="Dash board" style="text;html=1;align=center;verticalAlign=middle;whiteSpace=wrap;rounded=0;" parent="1" vertex="1">
          <mxGeometry x="892.5" y="775" width="90" height="30" as="geometry" />
        </mxCell>
        <mxCell id="M22AqNSWTO_a_4odQbLV-10" value="" style="shape=internalStorage;whiteSpace=wrap;html=1;backgroundOutline=1;dx=10;dy=20;" parent="1" vertex="1">
          <mxGeometry x="867.5" y="820" width="25" height="20" as="geometry" />
        </mxCell>
        <mxCell id="M22AqNSWTO_a_4odQbLV-11" value="System management" style="text;html=1;align=center;verticalAlign=middle;whiteSpace=wrap;rounded=0;" parent="1" vertex="1">
          <mxGeometry x="877.5" y="817.5" width="150" height="25" as="geometry" />
        </mxCell>
        <mxCell id="M22AqNSWTO_a_4odQbLV-12" value="&lt;i&gt;Navigation&lt;/i&gt;" style="text;html=1;align=center;verticalAlign=middle;whiteSpace=wrap;rounded=0;" parent="1" vertex="1">
          <mxGeometry x="877.5" y="740" width="60" height="30" as="geometry" />
        </mxCell>
        <mxCell id="M22AqNSWTO_a_4odQbLV-13" value="Admin home" style="text;html=1;align=center;verticalAlign=middle;whiteSpace=wrap;rounded=0;" parent="1" vertex="1">
          <mxGeometry x="877.5" y="620" width="105" height="30" as="geometry" />
        </mxCell>
        <mxCell id="M22AqNSWTO_a_4odQbLV-14" value="" style="rounded=0;whiteSpace=wrap;html=1;fillColor=#f5f5f5;strokeColor=#666666;fontColor=#333333;" parent="1" vertex="1">
          <mxGeometry x="1022.5" y="670" width="557.5" height="360" as="geometry" />
        </mxCell>
        <mxCell id="M22AqNSWTO_a_4odQbLV-15" value="" style="sketch=0;pointerEvents=1;shadow=0;dashed=0;html=1;strokeColor=none;fillColor=#505050;labelPosition=center;verticalLabelPosition=bottom;verticalAlign=top;outlineConnect=0;align=center;shape=mxgraph.office.concepts.home;" parent="1" vertex="1">
          <mxGeometry x="1032.5" y="720" width="20" height="20" as="geometry" />
        </mxCell>
        <mxCell id="M22AqNSWTO_a_4odQbLV-16" value="&lt;b style=&quot;font-size: 11px;&quot;&gt;List Faculties&lt;/b&gt;" style="text;html=1;align=center;verticalAlign=middle;whiteSpace=wrap;rounded=0;" parent="1" vertex="1">
          <mxGeometry x="1062.5" y="715" width="87.5" height="30" as="geometry" />
        </mxCell>
        <mxCell id="M22AqNSWTO_a_4odQbLV-26" value="&lt;b&gt;Faculties&lt;/b&gt;" style="text;html=1;align=center;verticalAlign=middle;whiteSpace=wrap;rounded=0;" parent="1" vertex="1">
          <mxGeometry x="1032.5" y="680" width="60" height="30" as="geometry" />
        </mxCell>
        <mxCell id="M22AqNSWTO_a_4odQbLV-27" value="" style="triangle;whiteSpace=wrap;html=1;" parent="1" vertex="1">
          <mxGeometry x="86.25" y="352.5" width="10" height="10" as="geometry" />
        </mxCell>
        <mxCell id="M22AqNSWTO_a_4odQbLV-28" value="Account" style="text;html=1;align=left;verticalAlign=middle;whiteSpace=wrap;rounded=0;" parent="1" vertex="1">
          <mxGeometry x="103.75" y="342.5" width="60" height="30" as="geometry" />
        </mxCell>
        <mxCell id="M22AqNSWTO_a_4odQbLV-29" value="" style="triangle;whiteSpace=wrap;html=1;" parent="1" vertex="1">
          <mxGeometry x="86.25" y="387.5" width="10" height="10" as="geometry" />
        </mxCell>
        <mxCell id="M22AqNSWTO_a_4odQbLV-30" value="Event" style="text;html=1;align=left;verticalAlign=middle;whiteSpace=wrap;rounded=0;" parent="1" vertex="1">
          <mxGeometry x="103.75" y="377.5" width="60" height="30" as="geometry" />
        </mxCell>
        <mxCell id="M22AqNSWTO_a_4odQbLV-31" value="" style="triangle;whiteSpace=wrap;html=1;" parent="1" vertex="1">
          <mxGeometry x="887.5" y="352.5" width="10" height="10" as="geometry" />
        </mxCell>
        <mxCell id="M22AqNSWTO_a_4odQbLV-32" value="Account" style="text;html=1;align=left;verticalAlign=middle;whiteSpace=wrap;rounded=0;" parent="1" vertex="1">
          <mxGeometry x="905" y="342.5" width="60" height="30" as="geometry" />
        </mxCell>
        <mxCell id="M22AqNSWTO_a_4odQbLV-33" value="" style="triangle;whiteSpace=wrap;html=1;" parent="1" vertex="1">
          <mxGeometry x="887.5" y="387.5" width="10" height="10" as="geometry" />
        </mxCell>
        <mxCell id="M22AqNSWTO_a_4odQbLV-34" value="Event" style="text;html=1;align=left;verticalAlign=middle;whiteSpace=wrap;rounded=0;" parent="1" vertex="1">
          <mxGeometry x="905" y="377.5" width="60" height="30" as="geometry" />
        </mxCell>
        <mxCell id="M22AqNSWTO_a_4odQbLV-35" value="" style="triangle;whiteSpace=wrap;html=1;" parent="1" vertex="1">
          <mxGeometry x="898.75" y="870" width="10" height="10" as="geometry" />
        </mxCell>
        <mxCell id="M22AqNSWTO_a_4odQbLV-36" value="Account" style="text;html=1;align=left;verticalAlign=middle;whiteSpace=wrap;rounded=0;" parent="1" vertex="1">
          <mxGeometry x="916.25" y="860" width="60" height="30" as="geometry" />
        </mxCell>
        <mxCell id="M22AqNSWTO_a_4odQbLV-37" value="" style="triangle;whiteSpace=wrap;html=1;" parent="1" vertex="1">
          <mxGeometry x="898.75" y="905" width="10" height="10" as="geometry" />
        </mxCell>
        <mxCell id="M22AqNSWTO_a_4odQbLV-38" value="Event" style="text;html=1;align=left;verticalAlign=middle;whiteSpace=wrap;rounded=0;" parent="1" vertex="1">
          <mxGeometry x="916.25" y="895" width="60" height="30" as="geometry" />
        </mxCell>
        <mxCell id="M22AqNSWTO_a_4odQbLV-39" value="Manager Faculties" style="swimlane;whiteSpace=wrap;html=1;align=left;startSize=55;" parent="1" vertex="1">
          <mxGeometry x="1050" y="749" width="510" height="265" as="geometry">
            <mxRectangle x="510" y="1190" width="130" height="70" as="alternateBounds" />
          </mxGeometry>
        </mxCell>
        <mxCell id="M22AqNSWTO_a_4odQbLV-40" value="Add faculty" style="rounded=0;whiteSpace=wrap;html=1;align=center;" parent="M22AqNSWTO_a_4odQbLV-39" vertex="1">
          <mxGeometry x="372.5" y="7.5" width="132.5" height="35" as="geometry" />
        </mxCell>
        <mxCell id="M22AqNSWTO_a_4odQbLV-41" value="" style="html=1;verticalLabelPosition=bottom;align=center;labelBackgroundColor=#ffffff;verticalAlign=top;strokeWidth=2;strokeColor=#000000;shadow=0;dashed=0;shape=mxgraph.ios7.icons.add;" parent="M22AqNSWTO_a_4odQbLV-39" vertex="1">
          <mxGeometry x="382.5" y="15" width="17.5" height="20" as="geometry" />
        </mxCell>
        <mxCell id="M22AqNSWTO_a_4odQbLV-42" value="&lt;font style=&quot;font-size: 10px;&quot;&gt;#&amp;nbsp; &amp;nbsp; &amp;nbsp; &amp;nbsp; &amp;nbsp; FACULTY&amp;nbsp; &amp;nbsp; &amp;nbsp; &amp;nbsp; DESCRIPTION&amp;nbsp; &amp;nbsp; &amp;nbsp; &amp;nbsp; &amp;nbsp;TIME START&amp;nbsp; &amp;nbsp; &amp;nbsp; &amp;nbsp; TIME END&amp;nbsp; &amp;nbsp; &amp;nbsp; &amp;nbsp;COORDINATOR&amp;nbsp; &amp;nbsp; &amp;nbsp; &amp;nbsp; &amp;nbsp; &amp;nbsp; ACTION&lt;/font&gt;" style="rounded=0;whiteSpace=wrap;html=1;align=left;" parent="M22AqNSWTO_a_4odQbLV-39" vertex="1">
          <mxGeometry y="50" width="510" height="40" as="geometry" />
        </mxCell>
        <mxCell id="M22AqNSWTO_a_4odQbLV-43" value="&lt;font style=&quot;font-size: 10px;&quot;&gt;1&amp;nbsp; &amp;nbsp; &amp;nbsp; &amp;nbsp; &amp;nbsp; TCH2403&amp;nbsp; &amp;nbsp; &amp;nbsp; &amp;nbsp; &amp;nbsp;web enterprise&amp;nbsp; &amp;nbsp; &amp;nbsp; &amp;nbsp; &amp;nbsp; &amp;nbsp; 20/1/2024&amp;nbsp; &amp;nbsp; &amp;nbsp; &amp;nbsp; &amp;nbsp; &amp;nbsp;20/4/2024&amp;nbsp; &amp;nbsp; &amp;nbsp; &amp;nbsp; &amp;nbsp; &amp;nbsp; &amp;nbsp; &amp;nbsp; &amp;nbsp;tung&lt;/font&gt;" style="rounded=0;whiteSpace=wrap;html=1;align=left;" parent="1" vertex="1">
          <mxGeometry x="1050" y="836.5" width="510" height="60" as="geometry" />
        </mxCell>
        <mxCell id="M22AqNSWTO_a_4odQbLV-45" value="" style="shape=image;verticalLabelPosition=bottom;labelBackgroundColor=default;verticalAlign=top;aspect=fixed;imageAspect=0;image=https://static.vecteezy.com/system/resources/thumbnails/003/241/364/small/trash-bin-icon-line-vector.jpg;" parent="1" vertex="1">
          <mxGeometry x="1522.5" y="852" width="36" height="36" as="geometry" />
        </mxCell>
        <mxCell id="M22AqNSWTO_a_4odQbLV-46" value="" style="html=1;verticalLabelPosition=bottom;align=center;labelBackgroundColor=#ffffff;verticalAlign=top;strokeWidth=2;strokeColor=#000000;shadow=0;dashed=0;shape=mxgraph.ios7.icons.compose;" parent="1" vertex="1">
          <mxGeometry x="1515" y="860" width="14.1" height="17.5" as="geometry" />
        </mxCell>
        <mxCell id="M22AqNSWTO_a_4odQbLV-55" value="" style="shape=image;html=1;verticalAlign=top;verticalLabelPosition=bottom;labelBackgroundColor=#ffffff;imageAspect=0;aspect=fixed;image=https://cdn0.iconfinder.com/data/icons/math-business-icon-set/93/1_9-128.png" parent="1" vertex="1">
          <mxGeometry x="1490" y="860" width="20" height="20" as="geometry" />
        </mxCell>
        <mxCell id="M22AqNSWTO_a_4odQbLV-56" value="" style="rounded=0;whiteSpace=wrap;html=1;" parent="1" vertex="1">
          <mxGeometry x="53.75" y="1120" width="727.5" height="70" as="geometry" />
        </mxCell>
        <mxCell id="M22AqNSWTO_a_4odQbLV-57" value="" style="rounded=0;whiteSpace=wrap;html=1;" parent="1" vertex="1">
          <mxGeometry x="53.75" y="1190" width="160" height="360" as="geometry" />
        </mxCell>
        <mxCell id="M22AqNSWTO_a_4odQbLV-58" value="" style="rounded=0;whiteSpace=wrap;html=1;" parent="1" vertex="1">
          <mxGeometry x="53.75" y="1190" width="160" height="60" as="geometry" />
        </mxCell>
        <mxCell id="M22AqNSWTO_a_4odQbLV-59" value="" style="shape=actor;whiteSpace=wrap;html=1;" parent="1" vertex="1">
          <mxGeometry x="708.75" y="1150" width="20" height="15" as="geometry" />
        </mxCell>
        <mxCell id="M22AqNSWTO_a_4odQbLV-60" value="" style="html=1;verticalLabelPosition=bottom;align=center;labelBackgroundColor=#ffffff;verticalAlign=top;strokeWidth=2;strokeColor=#000000;shadow=0;dashed=0;shape=mxgraph.ios7.icons.bell;" parent="1" vertex="1">
          <mxGeometry x="643.75" y="1152.5" width="20" height="10" as="geometry" />
        </mxCell>
        <mxCell id="M22AqNSWTO_a_4odQbLV-61" value="" style="sketch=0;pointerEvents=1;shadow=0;dashed=0;html=1;strokeColor=none;fillColor=#505050;labelPosition=center;verticalLabelPosition=bottom;verticalAlign=top;outlineConnect=0;align=center;shape=mxgraph.office.concepts.home;" parent="1" vertex="1">
          <mxGeometry x="63.75" y="1205" width="30" height="30" as="geometry" />
        </mxCell>
        <mxCell id="M22AqNSWTO_a_4odQbLV-62" value="Admin Page" style="text;html=1;align=center;verticalAlign=middle;whiteSpace=wrap;rounded=0;" parent="1" vertex="1">
          <mxGeometry x="93.75" y="1205" width="90" height="30" as="geometry" />
        </mxCell>
        <mxCell id="M22AqNSWTO_a_4odQbLV-63" value="" style="shape=image;verticalLabelPosition=bottom;labelBackgroundColor=default;verticalAlign=top;aspect=fixed;imageAspect=0;image=https://images.rawpixel.com/image_png_social_square/czNmcy1wcml2YXRlL3Jhd3BpeGVsX2ltYWdlcy93ZWJzaXRlX2NvbnRlbnQvbHIvdjk5My00MC5wbmc.png;" parent="1" vertex="1">
          <mxGeometry x="61.25" y="1300" width="20" height="20" as="geometry" />
        </mxCell>
        <mxCell id="M22AqNSWTO_a_4odQbLV-64" value="Dash board" style="text;html=1;align=center;verticalAlign=middle;whiteSpace=wrap;rounded=0;" parent="1" vertex="1">
          <mxGeometry x="83.75" y="1295" width="90" height="30" as="geometry" />
        </mxCell>
        <mxCell id="M22AqNSWTO_a_4odQbLV-65" value="" style="shape=internalStorage;whiteSpace=wrap;html=1;backgroundOutline=1;dx=10;dy=20;" parent="1" vertex="1">
          <mxGeometry x="58.75" y="1340" width="25" height="20" as="geometry" />
        </mxCell>
        <mxCell id="M22AqNSWTO_a_4odQbLV-66" value="System management" style="text;html=1;align=center;verticalAlign=middle;whiteSpace=wrap;rounded=0;" parent="1" vertex="1">
          <mxGeometry x="68.75" y="1337.5" width="150" height="25" as="geometry" />
        </mxCell>
        <mxCell id="M22AqNSWTO_a_4odQbLV-67" value="&lt;i&gt;Navigation&lt;/i&gt;" style="text;html=1;align=center;verticalAlign=middle;whiteSpace=wrap;rounded=0;" parent="1" vertex="1">
          <mxGeometry x="68.75" y="1260" width="60" height="30" as="geometry" />
        </mxCell>
        <mxCell id="M22AqNSWTO_a_4odQbLV-68" value="Admin faculty management" style="text;html=1;align=center;verticalAlign=middle;whiteSpace=wrap;rounded=0;" parent="1" vertex="1">
          <mxGeometry x="68.75" y="1140" width="160" height="30" as="geometry" />
        </mxCell>
        <mxCell id="M22AqNSWTO_a_4odQbLV-69" value="" style="triangle;whiteSpace=wrap;html=1;" parent="1" vertex="1">
          <mxGeometry x="76.25" y="1390" width="10" height="10" as="geometry" />
        </mxCell>
        <mxCell id="M22AqNSWTO_a_4odQbLV-70" value="Account" style="text;html=1;align=left;verticalAlign=middle;whiteSpace=wrap;rounded=0;" parent="1" vertex="1">
          <mxGeometry x="93.75" y="1380" width="60" height="30" as="geometry" />
        </mxCell>
        <mxCell id="M22AqNSWTO_a_4odQbLV-71" value="" style="triangle;whiteSpace=wrap;html=1;" parent="1" vertex="1">
          <mxGeometry x="76.25" y="1425" width="10" height="10" as="geometry" />
        </mxCell>
        <mxCell id="M22AqNSWTO_a_4odQbLV-72" value="Event" style="text;html=1;align=left;verticalAlign=middle;whiteSpace=wrap;rounded=0;" parent="1" vertex="1">
          <mxGeometry x="93.75" y="1415" width="60" height="30" as="geometry" />
        </mxCell>
        <mxCell id="M22AqNSWTO_a_4odQbLV-73" value="" style="rounded=0;whiteSpace=wrap;html=1;fillColor=#f5f5f5;strokeColor=#666666;fontColor=#333333;" parent="1" vertex="1">
          <mxGeometry x="213.75" y="1190" width="567.5" height="360" as="geometry" />
        </mxCell>
        <mxCell id="M22AqNSWTO_a_4odQbLV-74" value="" style="sketch=0;pointerEvents=1;shadow=0;dashed=0;html=1;strokeColor=none;fillColor=#505050;labelPosition=center;verticalLabelPosition=bottom;verticalAlign=top;outlineConnect=0;align=center;shape=mxgraph.office.concepts.home;" parent="1" vertex="1">
          <mxGeometry x="223.75" y="1240" width="20" height="20" as="geometry" />
        </mxCell>
        <mxCell id="M22AqNSWTO_a_4odQbLV-75" value="&lt;b&gt;List Accounts&lt;/b&gt;" style="text;html=1;align=center;verticalAlign=middle;whiteSpace=wrap;rounded=0;" parent="1" vertex="1">
          <mxGeometry x="223.75" y="1205" width="85" height="30" as="geometry" />
        </mxCell>
        <mxCell id="M22AqNSWTO_a_4odQbLV-76" value="&lt;span style=&quot;font-size: 11px;&quot;&gt;&lt;b&gt;Add a Faculty&lt;/b&gt;&lt;/span&gt;" style="text;html=1;align=center;verticalAlign=middle;whiteSpace=wrap;rounded=0;" parent="1" vertex="1">
          <mxGeometry x="253.75" y="1235" width="95" height="30" as="geometry" />
        </mxCell>
        <mxCell id="M22AqNSWTO_a_4odQbLV-77" value="Add a User" style="swimlane;whiteSpace=wrap;html=1;align=left;startSize=40;" parent="1" vertex="1">
          <mxGeometry x="233.75" y="1269" width="510" height="261" as="geometry">
            <mxRectangle x="512.5" y="2129" width="130" height="70" as="alternateBounds" />
          </mxGeometry>
        </mxCell>
        <mxCell id="M22AqNSWTO_a_4odQbLV-78" value="" style="rounded=0;whiteSpace=wrap;html=1;" parent="M22AqNSWTO_a_4odQbLV-77" vertex="1">
          <mxGeometry x="22.5" y="116" width="197.5" height="84" as="geometry" />
        </mxCell>
        <mxCell id="M22AqNSWTO_a_4odQbLV-79" value="Descripstion" style="text;html=1;align=left;verticalAlign=middle;whiteSpace=wrap;rounded=0;" parent="M22AqNSWTO_a_4odQbLV-77" vertex="1">
          <mxGeometry x="22.5" y="91" width="60" height="30" as="geometry" />
        </mxCell>
        <mxCell id="M22AqNSWTO_a_4odQbLV-80" value="Faculty Name" style="text;html=1;align=left;verticalAlign=middle;whiteSpace=wrap;rounded=0;" parent="M22AqNSWTO_a_4odQbLV-77" vertex="1">
          <mxGeometry x="22.5" y="41" width="87.5" height="30" as="geometry" />
        </mxCell>
        <mxCell id="M22AqNSWTO_a_4odQbLV-81" value="Select Date" style="text;html=1;align=left;verticalAlign=middle;whiteSpace=wrap;rounded=0;" parent="M22AqNSWTO_a_4odQbLV-77" vertex="1">
          <mxGeometry x="277.5" y="41" width="95" height="30" as="geometry" />
        </mxCell>
        <mxCell id="M22AqNSWTO_a_4odQbLV-83" value="Select a Coordinator" style="text;html=1;align=left;verticalAlign=middle;whiteSpace=wrap;rounded=0;" parent="M22AqNSWTO_a_4odQbLV-77" vertex="1">
          <mxGeometry x="277.5" y="141" width="122.5" height="30" as="geometry" />
        </mxCell>
        <mxCell id="M22AqNSWTO_a_4odQbLV-93" value="Submit" style="html=1;shadow=0;dashed=0;shape=mxgraph.bootstrap.rrect;rSize=5;strokeColor=none;strokeWidth=1;fillColor=#33A64C;fontColor=#FFFFFF;whiteSpace=wrap;align=center;verticalAlign=middle;spacingLeft=0;fontStyle=0;fontSize=16;spacing=5;" parent="M22AqNSWTO_a_4odQbLV-77" vertex="1">
          <mxGeometry x="22.5" y="221" width="60" height="30" as="geometry" />
        </mxCell>
        <mxCell id="M22AqNSWTO_a_4odQbLV-94" value="" style="rounded=0;whiteSpace=wrap;html=1;" parent="M22AqNSWTO_a_4odQbLV-77" vertex="1">
          <mxGeometry x="22.5" y="66" width="197.5" height="25" as="geometry" />
        </mxCell>
        <mxCell id="M22AqNSWTO_a_4odQbLV-100" value="" style="rounded=0;whiteSpace=wrap;html=1;" parent="M22AqNSWTO_a_4odQbLV-77" vertex="1">
          <mxGeometry x="277.5" y="66" width="200" height="25" as="geometry" />
        </mxCell>
        <mxCell id="M22AqNSWTO_a_4odQbLV-101" value="" style="endArrow=none;html=1;rounded=0;exitX=1;exitY=1;exitDx=0;exitDy=0;entryX=1;entryY=0;entryDx=0;entryDy=0;" parent="M22AqNSWTO_a_4odQbLV-77" source="M22AqNSWTO_a_4odQbLV-104" target="M22AqNSWTO_a_4odQbLV-104" edge="1">
          <mxGeometry width="50" height="50" relative="1" as="geometry">
            <mxPoint x="90" y="161" as="sourcePoint" />
            <mxPoint x="325" y="171" as="targetPoint" />
          </mxGeometry>
        </mxCell>
        <mxCell id="M22AqNSWTO_a_4odQbLV-104" value="Date Start" style="text;html=1;align=center;verticalAlign=middle;whiteSpace=wrap;rounded=0;" parent="M22AqNSWTO_a_4odQbLV-77" vertex="1">
          <mxGeometry x="277.5" y="67.25" width="62.5" height="22.5" as="geometry" />
        </mxCell>
        <mxCell id="M22AqNSWTO_a_4odQbLV-110" value="" style="rounded=0;whiteSpace=wrap;html=1;" parent="M22AqNSWTO_a_4odQbLV-77" vertex="1">
          <mxGeometry x="277.5" y="101" width="200" height="25" as="geometry" />
        </mxCell>
        <mxCell id="M22AqNSWTO_a_4odQbLV-111" value="" style="endArrow=none;html=1;rounded=0;exitX=1;exitY=1;exitDx=0;exitDy=0;entryX=1;entryY=0;entryDx=0;entryDy=0;" parent="M22AqNSWTO_a_4odQbLV-77" source="M22AqNSWTO_a_4odQbLV-121" target="M22AqNSWTO_a_4odQbLV-121" edge="1">
          <mxGeometry width="50" height="50" relative="1" as="geometry">
            <mxPoint x="90" y="196" as="sourcePoint" />
            <mxPoint x="325" y="206" as="targetPoint" />
          </mxGeometry>
        </mxCell>
        <mxCell id="M22AqNSWTO_a_4odQbLV-116" value="" style="rounded=0;whiteSpace=wrap;html=1;" parent="M22AqNSWTO_a_4odQbLV-77" vertex="1">
          <mxGeometry x="277.5" y="175" width="200" height="25" as="geometry" />
        </mxCell>
        <mxCell id="M22AqNSWTO_a_4odQbLV-118" value="" style="shape=image;html=1;verticalAlign=top;verticalLabelPosition=bottom;labelBackgroundColor=#ffffff;imageAspect=0;aspect=fixed;image=https://cdn4.iconfinder.com/data/icons/ionicons/512/icon-arrow-down-b-128.png;direction=west;" parent="M22AqNSWTO_a_4odQbLV-77" vertex="1">
          <mxGeometry x="457.5" y="180" width="8" height="8" as="geometry" />
        </mxCell>
        <mxCell id="M22AqNSWTO_a_4odQbLV-119" value="" style="shape=image;html=1;verticalAlign=top;verticalLabelPosition=bottom;labelBackgroundColor=#ffffff;imageAspect=0;aspect=fixed;image=https://cdn4.iconfinder.com/data/icons/ionicons/512/icon-arrow-down-b-128.png" parent="M22AqNSWTO_a_4odQbLV-77" vertex="1">
          <mxGeometry x="457.5" y="188" width="8" height="8" as="geometry" />
        </mxCell>
        <mxCell id="M22AqNSWTO_a_4odQbLV-120" value="tung" style="text;html=1;align=center;verticalAlign=middle;whiteSpace=wrap;rounded=0;" parent="M22AqNSWTO_a_4odQbLV-77" vertex="1">
          <mxGeometry x="277.5" y="177.5" width="50" height="22.5" as="geometry" />
        </mxCell>
        <mxCell id="M22AqNSWTO_a_4odQbLV-121" value="Date Start" style="text;html=1;align=center;verticalAlign=middle;whiteSpace=wrap;rounded=0;" parent="M22AqNSWTO_a_4odQbLV-77" vertex="1">
          <mxGeometry x="277.5" y="102.25" width="62.5" height="22.5" as="geometry" />
        </mxCell>
        <mxCell id="M22AqNSWTO_a_4odQbLV-176" value="" style="sketch=0;pointerEvents=1;shadow=0;dashed=0;html=1;strokeColor=none;fillColor=#000000;labelPosition=center;verticalLabelPosition=bottom;verticalAlign=top;align=center;outlineConnect=0;shape=mxgraph.veeam2.calendar;" parent="M22AqNSWTO_a_4odQbLV-77" vertex="1">
          <mxGeometry x="452.75" y="69.5" width="17.5" height="18" as="geometry" />
        </mxCell>
        <mxCell id="M22AqNSWTO_a_4odQbLV-177" value="" style="sketch=0;pointerEvents=1;shadow=0;dashed=0;html=1;strokeColor=none;fillColor=#000000;labelPosition=center;verticalLabelPosition=bottom;verticalAlign=top;align=center;outlineConnect=0;shape=mxgraph.veeam2.calendar;" parent="M22AqNSWTO_a_4odQbLV-77" vertex="1">
          <mxGeometry x="452.75" y="104.5" width="17.5" height="18" as="geometry" />
        </mxCell>
        <mxCell id="M22AqNSWTO_a_4odQbLV-178" value="mm/dd/yyyy" style="text;html=1;align=center;verticalAlign=middle;whiteSpace=wrap;rounded=0;" parent="M22AqNSWTO_a_4odQbLV-77" vertex="1">
          <mxGeometry x="340" y="67.25" width="110" height="22.75" as="geometry" />
        </mxCell>
        <mxCell id="M22AqNSWTO_a_4odQbLV-179" value="mm/dd/yyyy" style="text;html=1;align=center;verticalAlign=middle;whiteSpace=wrap;rounded=0;" parent="M22AqNSWTO_a_4odQbLV-77" vertex="1">
          <mxGeometry x="340" y="102.13000000000011" width="110" height="22.75" as="geometry" />
        </mxCell>
        <mxCell id="1ssIQFsaXV9nHCZhH8ZB-1" value="" style="rounded=0;whiteSpace=wrap;html=1;" vertex="1" parent="1">
          <mxGeometry x="860" y="1120" width="727.5" height="70" as="geometry" />
        </mxCell>
        <mxCell id="1ssIQFsaXV9nHCZhH8ZB-2" value="" style="rounded=0;whiteSpace=wrap;html=1;" vertex="1" parent="1">
          <mxGeometry x="860" y="1190" width="160" height="360" as="geometry" />
        </mxCell>
        <mxCell id="1ssIQFsaXV9nHCZhH8ZB-3" value="" style="rounded=0;whiteSpace=wrap;html=1;" vertex="1" parent="1">
          <mxGeometry x="860" y="1190" width="160" height="60" as="geometry" />
        </mxCell>
        <mxCell id="1ssIQFsaXV9nHCZhH8ZB-4" value="" style="shape=actor;whiteSpace=wrap;html=1;" vertex="1" parent="1">
          <mxGeometry x="1515" y="1150" width="20" height="15" as="geometry" />
        </mxCell>
        <mxCell id="1ssIQFsaXV9nHCZhH8ZB-5" value="" style="html=1;verticalLabelPosition=bottom;align=center;labelBackgroundColor=#ffffff;verticalAlign=top;strokeWidth=2;strokeColor=#000000;shadow=0;dashed=0;shape=mxgraph.ios7.icons.bell;" vertex="1" parent="1">
          <mxGeometry x="1450" y="1152.5" width="20" height="10" as="geometry" />
        </mxCell>
        <mxCell id="1ssIQFsaXV9nHCZhH8ZB-6" value="" style="sketch=0;pointerEvents=1;shadow=0;dashed=0;html=1;strokeColor=none;fillColor=#505050;labelPosition=center;verticalLabelPosition=bottom;verticalAlign=top;outlineConnect=0;align=center;shape=mxgraph.office.concepts.home;" vertex="1" parent="1">
          <mxGeometry x="870" y="1205" width="30" height="30" as="geometry" />
        </mxCell>
        <mxCell id="1ssIQFsaXV9nHCZhH8ZB-7" value="Admin Page" style="text;html=1;align=center;verticalAlign=middle;whiteSpace=wrap;rounded=0;" vertex="1" parent="1">
          <mxGeometry x="900" y="1205" width="90" height="30" as="geometry" />
        </mxCell>
        <mxCell id="1ssIQFsaXV9nHCZhH8ZB-8" value="" style="shape=image;verticalLabelPosition=bottom;labelBackgroundColor=default;verticalAlign=top;aspect=fixed;imageAspect=0;image=https://images.rawpixel.com/image_png_social_square/czNmcy1wcml2YXRlL3Jhd3BpeGVsX2ltYWdlcy93ZWJzaXRlX2NvbnRlbnQvbHIvdjk5My00MC5wbmc.png;" vertex="1" parent="1">
          <mxGeometry x="867.5" y="1300" width="20" height="20" as="geometry" />
        </mxCell>
        <mxCell id="1ssIQFsaXV9nHCZhH8ZB-9" value="Dash board" style="text;html=1;align=center;verticalAlign=middle;whiteSpace=wrap;rounded=0;" vertex="1" parent="1">
          <mxGeometry x="890" y="1295" width="90" height="30" as="geometry" />
        </mxCell>
        <mxCell id="1ssIQFsaXV9nHCZhH8ZB-10" value="" style="shape=internalStorage;whiteSpace=wrap;html=1;backgroundOutline=1;dx=10;dy=20;" vertex="1" parent="1">
          <mxGeometry x="865" y="1340" width="25" height="20" as="geometry" />
        </mxCell>
        <mxCell id="1ssIQFsaXV9nHCZhH8ZB-11" value="System management" style="text;html=1;align=center;verticalAlign=middle;whiteSpace=wrap;rounded=0;" vertex="1" parent="1">
          <mxGeometry x="875" y="1337.5" width="150" height="25" as="geometry" />
        </mxCell>
        <mxCell id="1ssIQFsaXV9nHCZhH8ZB-12" value="&lt;i&gt;Navigation&lt;/i&gt;" style="text;html=1;align=center;verticalAlign=middle;whiteSpace=wrap;rounded=0;" vertex="1" parent="1">
          <mxGeometry x="875" y="1260" width="60" height="30" as="geometry" />
        </mxCell>
        <mxCell id="1ssIQFsaXV9nHCZhH8ZB-13" value="Admin faculty management" style="text;html=1;align=center;verticalAlign=middle;whiteSpace=wrap;rounded=0;" vertex="1" parent="1">
          <mxGeometry x="875" y="1140" width="160" height="30" as="geometry" />
        </mxCell>
        <mxCell id="1ssIQFsaXV9nHCZhH8ZB-14" value="" style="triangle;whiteSpace=wrap;html=1;" vertex="1" parent="1">
          <mxGeometry x="882.5" y="1390" width="10" height="10" as="geometry" />
        </mxCell>
        <mxCell id="1ssIQFsaXV9nHCZhH8ZB-15" value="Account" style="text;html=1;align=left;verticalAlign=middle;whiteSpace=wrap;rounded=0;" vertex="1" parent="1">
          <mxGeometry x="900" y="1380" width="60" height="30" as="geometry" />
        </mxCell>
        <mxCell id="1ssIQFsaXV9nHCZhH8ZB-16" value="" style="triangle;whiteSpace=wrap;html=1;" vertex="1" parent="1">
          <mxGeometry x="882.5" y="1425" width="10" height="10" as="geometry" />
        </mxCell>
        <mxCell id="1ssIQFsaXV9nHCZhH8ZB-17" value="Event" style="text;html=1;align=left;verticalAlign=middle;whiteSpace=wrap;rounded=0;" vertex="1" parent="1">
          <mxGeometry x="900" y="1415" width="60" height="30" as="geometry" />
        </mxCell>
        <mxCell id="1ssIQFsaXV9nHCZhH8ZB-18" value="" style="rounded=0;whiteSpace=wrap;html=1;fillColor=#f5f5f5;strokeColor=#666666;fontColor=#333333;" vertex="1" parent="1">
          <mxGeometry x="1020" y="1190" width="567.5" height="360" as="geometry" />
        </mxCell>
        <mxCell id="1ssIQFsaXV9nHCZhH8ZB-19" value="" style="sketch=0;pointerEvents=1;shadow=0;dashed=0;html=1;strokeColor=none;fillColor=#505050;labelPosition=center;verticalLabelPosition=bottom;verticalAlign=top;outlineConnect=0;align=center;shape=mxgraph.office.concepts.home;" vertex="1" parent="1">
          <mxGeometry x="1030" y="1240" width="20" height="20" as="geometry" />
        </mxCell>
        <mxCell id="1ssIQFsaXV9nHCZhH8ZB-20" value="&lt;b&gt;List Accounts&lt;/b&gt;" style="text;html=1;align=center;verticalAlign=middle;whiteSpace=wrap;rounded=0;" vertex="1" parent="1">
          <mxGeometry x="1030" y="1205" width="85" height="30" as="geometry" />
        </mxCell>
        <mxCell id="1ssIQFsaXV9nHCZhH8ZB-21" value="&lt;span style=&quot;font-size: 11px;&quot;&gt;&lt;b&gt;Edit a Faculty&lt;/b&gt;&lt;/span&gt;" style="text;html=1;align=center;verticalAlign=middle;whiteSpace=wrap;rounded=0;" vertex="1" parent="1">
          <mxGeometry x="1060" y="1235" width="95" height="30" as="geometry" />
        </mxCell>
        <mxCell id="1ssIQFsaXV9nHCZhH8ZB-22" value="Add a User" style="swimlane;whiteSpace=wrap;html=1;align=left;startSize=40;" vertex="1" parent="1">
          <mxGeometry x="1040" y="1269" width="510" height="271" as="geometry">
            <mxRectangle x="512.5" y="2129" width="130" height="70" as="alternateBounds" />
          </mxGeometry>
        </mxCell>
        <mxCell id="1ssIQFsaXV9nHCZhH8ZB-23" value="" style="rounded=0;whiteSpace=wrap;html=1;" vertex="1" parent="1ssIQFsaXV9nHCZhH8ZB-22">
          <mxGeometry x="22.5" y="116" width="197.5" height="44" as="geometry" />
        </mxCell>
        <mxCell id="1ssIQFsaXV9nHCZhH8ZB-24" value="Descripstion" style="text;html=1;align=left;verticalAlign=middle;whiteSpace=wrap;rounded=0;" vertex="1" parent="1ssIQFsaXV9nHCZhH8ZB-22">
          <mxGeometry x="22.5" y="91" width="60" height="30" as="geometry" />
        </mxCell>
        <mxCell id="1ssIQFsaXV9nHCZhH8ZB-25" value="Faculty Name" style="text;html=1;align=left;verticalAlign=middle;whiteSpace=wrap;rounded=0;" vertex="1" parent="1ssIQFsaXV9nHCZhH8ZB-22">
          <mxGeometry x="22.5" y="41" width="87.5" height="30" as="geometry" />
        </mxCell>
        <mxCell id="1ssIQFsaXV9nHCZhH8ZB-26" value="Select Date" style="text;html=1;align=left;verticalAlign=middle;whiteSpace=wrap;rounded=0;" vertex="1" parent="1ssIQFsaXV9nHCZhH8ZB-22">
          <mxGeometry x="277.5" y="41" width="95" height="30" as="geometry" />
        </mxCell>
        <mxCell id="1ssIQFsaXV9nHCZhH8ZB-27" value="Select a Coordinator&lt;br&gt;Previous Coordinator: tung" style="text;html=1;align=left;verticalAlign=middle;whiteSpace=wrap;rounded=0;" vertex="1" parent="1ssIQFsaXV9nHCZhH8ZB-22">
          <mxGeometry x="277.5" y="133" width="162.5" height="30" as="geometry" />
        </mxCell>
        <mxCell id="1ssIQFsaXV9nHCZhH8ZB-28" value="Submit" style="html=1;shadow=0;dashed=0;shape=mxgraph.bootstrap.rrect;rSize=5;strokeColor=none;strokeWidth=1;fillColor=#33A64C;fontColor=#FFFFFF;whiteSpace=wrap;align=center;verticalAlign=middle;spacingLeft=0;fontStyle=0;fontSize=16;spacing=5;" vertex="1" parent="1ssIQFsaXV9nHCZhH8ZB-22">
          <mxGeometry x="22.5" y="240" width="60" height="21" as="geometry" />
        </mxCell>
        <mxCell id="1ssIQFsaXV9nHCZhH8ZB-29" value="" style="rounded=0;whiteSpace=wrap;html=1;" vertex="1" parent="1ssIQFsaXV9nHCZhH8ZB-22">
          <mxGeometry x="22.5" y="66" width="197.5" height="25" as="geometry" />
        </mxCell>
        <mxCell id="1ssIQFsaXV9nHCZhH8ZB-30" value="" style="rounded=0;whiteSpace=wrap;html=1;" vertex="1" parent="1ssIQFsaXV9nHCZhH8ZB-22">
          <mxGeometry x="277.5" y="66" width="200" height="25" as="geometry" />
        </mxCell>
        <mxCell id="1ssIQFsaXV9nHCZhH8ZB-31" value="" style="endArrow=none;html=1;rounded=0;exitX=1;exitY=1;exitDx=0;exitDy=0;entryX=1;entryY=0;entryDx=0;entryDy=0;" edge="1" parent="1ssIQFsaXV9nHCZhH8ZB-22" source="1ssIQFsaXV9nHCZhH8ZB-32" target="1ssIQFsaXV9nHCZhH8ZB-32">
          <mxGeometry width="50" height="50" relative="1" as="geometry">
            <mxPoint x="90" y="161" as="sourcePoint" />
            <mxPoint x="325" y="171" as="targetPoint" />
          </mxGeometry>
        </mxCell>
        <mxCell id="1ssIQFsaXV9nHCZhH8ZB-32" value="Date Start" style="text;html=1;align=center;verticalAlign=middle;whiteSpace=wrap;rounded=0;" vertex="1" parent="1ssIQFsaXV9nHCZhH8ZB-22">
          <mxGeometry x="277.5" y="67.25" width="62.5" height="22.5" as="geometry" />
        </mxCell>
        <mxCell id="1ssIQFsaXV9nHCZhH8ZB-33" value="" style="rounded=0;whiteSpace=wrap;html=1;" vertex="1" parent="1ssIQFsaXV9nHCZhH8ZB-22">
          <mxGeometry x="277.5" y="101" width="200" height="25" as="geometry" />
        </mxCell>
        <mxCell id="1ssIQFsaXV9nHCZhH8ZB-34" value="" style="endArrow=none;html=1;rounded=0;exitX=1;exitY=1;exitDx=0;exitDy=0;entryX=1;entryY=0;entryDx=0;entryDy=0;" edge="1" parent="1ssIQFsaXV9nHCZhH8ZB-22" source="1ssIQFsaXV9nHCZhH8ZB-39" target="1ssIQFsaXV9nHCZhH8ZB-39">
          <mxGeometry width="50" height="50" relative="1" as="geometry">
            <mxPoint x="90" y="196" as="sourcePoint" />
            <mxPoint x="325" y="206" as="targetPoint" />
          </mxGeometry>
        </mxCell>
        <mxCell id="1ssIQFsaXV9nHCZhH8ZB-35" value="" style="rounded=0;whiteSpace=wrap;html=1;" vertex="1" parent="1ssIQFsaXV9nHCZhH8ZB-22">
          <mxGeometry x="277.5" y="163" width="200" height="17" as="geometry" />
        </mxCell>
        <mxCell id="1ssIQFsaXV9nHCZhH8ZB-36" value="" style="shape=image;html=1;verticalAlign=top;verticalLabelPosition=bottom;labelBackgroundColor=#ffffff;imageAspect=0;aspect=fixed;image=https://cdn4.iconfinder.com/data/icons/ionicons/512/icon-arrow-down-b-128.png;direction=west;" vertex="1" parent="1ssIQFsaXV9nHCZhH8ZB-22">
          <mxGeometry x="462.25" y="164.25" width="8" height="8" as="geometry" />
        </mxCell>
        <mxCell id="1ssIQFsaXV9nHCZhH8ZB-37" value="" style="shape=image;html=1;verticalAlign=top;verticalLabelPosition=bottom;labelBackgroundColor=#ffffff;imageAspect=0;aspect=fixed;image=https://cdn4.iconfinder.com/data/icons/ionicons/512/icon-arrow-down-b-128.png" vertex="1" parent="1ssIQFsaXV9nHCZhH8ZB-22">
          <mxGeometry x="462.25" y="172.25" width="8" height="8" as="geometry" />
        </mxCell>
        <mxCell id="1ssIQFsaXV9nHCZhH8ZB-38" value="tam" style="text;html=1;align=center;verticalAlign=middle;whiteSpace=wrap;rounded=0;" vertex="1" parent="1ssIQFsaXV9nHCZhH8ZB-22">
          <mxGeometry x="277.5" y="164.25" width="50" height="15.75" as="geometry" />
        </mxCell>
        <mxCell id="1ssIQFsaXV9nHCZhH8ZB-39" value="Date Start" style="text;html=1;align=center;verticalAlign=middle;whiteSpace=wrap;rounded=0;" vertex="1" parent="1ssIQFsaXV9nHCZhH8ZB-22">
          <mxGeometry x="277.5" y="102.25" width="62.5" height="22.5" as="geometry" />
        </mxCell>
        <mxCell id="1ssIQFsaXV9nHCZhH8ZB-40" value="" style="sketch=0;pointerEvents=1;shadow=0;dashed=0;html=1;strokeColor=none;fillColor=#000000;labelPosition=center;verticalLabelPosition=bottom;verticalAlign=top;align=center;outlineConnect=0;shape=mxgraph.veeam2.calendar;" vertex="1" parent="1ssIQFsaXV9nHCZhH8ZB-22">
          <mxGeometry x="452.75" y="69.5" width="17.5" height="18" as="geometry" />
        </mxCell>
        <mxCell id="1ssIQFsaXV9nHCZhH8ZB-41" value="" style="sketch=0;pointerEvents=1;shadow=0;dashed=0;html=1;strokeColor=none;fillColor=#000000;labelPosition=center;verticalLabelPosition=bottom;verticalAlign=top;align=center;outlineConnect=0;shape=mxgraph.veeam2.calendar;" vertex="1" parent="1ssIQFsaXV9nHCZhH8ZB-22">
          <mxGeometry x="452.75" y="104.5" width="17.5" height="18" as="geometry" />
        </mxCell>
        <mxCell id="1ssIQFsaXV9nHCZhH8ZB-42" value="mm/dd/yyyy" style="text;html=1;align=center;verticalAlign=middle;whiteSpace=wrap;rounded=0;" vertex="1" parent="1ssIQFsaXV9nHCZhH8ZB-22">
          <mxGeometry x="340" y="67.25" width="110" height="22.75" as="geometry" />
        </mxCell>
        <mxCell id="1ssIQFsaXV9nHCZhH8ZB-43" value="mm/dd/yyyy" style="text;html=1;align=center;verticalAlign=middle;whiteSpace=wrap;rounded=0;" vertex="1" parent="1ssIQFsaXV9nHCZhH8ZB-22">
          <mxGeometry x="340" y="102.13000000000011" width="110" height="22.75" as="geometry" />
        </mxCell>
        <mxCell id="1ssIQFsaXV9nHCZhH8ZB-45" value="Choose Student:&lt;br&gt;Student have participated In this Faculty&lt;div&gt;+a&lt;br&gt;&lt;/div&gt;" style="text;html=1;align=left;verticalAlign=middle;whiteSpace=wrap;rounded=0;" vertex="1" parent="1ssIQFsaXV9nHCZhH8ZB-22">
          <mxGeometry x="22.5" y="172.25" width="220" height="30" as="geometry" />
        </mxCell>
        <mxCell id="1ssIQFsaXV9nHCZhH8ZB-51" value="" style="rounded=0;whiteSpace=wrap;html=1;" vertex="1" parent="1ssIQFsaXV9nHCZhH8ZB-22">
          <mxGeometry x="277.5" y="211" width="200" height="17" as="geometry" />
        </mxCell>
        <mxCell id="1ssIQFsaXV9nHCZhH8ZB-52" value="" style="shape=image;html=1;verticalAlign=top;verticalLabelPosition=bottom;labelBackgroundColor=#ffffff;imageAspect=0;aspect=fixed;image=https://cdn4.iconfinder.com/data/icons/ionicons/512/icon-arrow-down-b-128.png;direction=west;" vertex="1" parent="1ssIQFsaXV9nHCZhH8ZB-22">
          <mxGeometry x="462.25" y="212.25" width="8" height="8" as="geometry" />
        </mxCell>
        <mxCell id="1ssIQFsaXV9nHCZhH8ZB-53" value="" style="shape=image;html=1;verticalAlign=top;verticalLabelPosition=bottom;labelBackgroundColor=#ffffff;imageAspect=0;aspect=fixed;image=https://cdn4.iconfinder.com/data/icons/ionicons/512/icon-arrow-down-b-128.png" vertex="1" parent="1ssIQFsaXV9nHCZhH8ZB-22">
          <mxGeometry x="462.25" y="220.25" width="8" height="8" as="geometry" />
        </mxCell>
        <mxCell id="1ssIQFsaXV9nHCZhH8ZB-54" value="a" style="text;html=1;align=center;verticalAlign=middle;whiteSpace=wrap;rounded=0;" vertex="1" parent="1ssIQFsaXV9nHCZhH8ZB-22">
          <mxGeometry x="277.5" y="212.25" width="50" height="15.75" as="geometry" />
        </mxCell>
        <mxCell id="1ssIQFsaXV9nHCZhH8ZB-46" value="" style="rounded=0;whiteSpace=wrap;html=1;" vertex="1" parent="1">
          <mxGeometry x="1062.5" y="1480" width="200" height="17" as="geometry" />
        </mxCell>
        <mxCell id="1ssIQFsaXV9nHCZhH8ZB-47" value="" style="shape=image;html=1;verticalAlign=top;verticalLabelPosition=bottom;labelBackgroundColor=#ffffff;imageAspect=0;aspect=fixed;image=https://cdn4.iconfinder.com/data/icons/ionicons/512/icon-arrow-down-b-128.png;direction=west;" vertex="1" parent="1">
          <mxGeometry x="1247.25" y="1481.25" width="8" height="8" as="geometry" />
        </mxCell>
        <mxCell id="1ssIQFsaXV9nHCZhH8ZB-48" value="" style="shape=image;html=1;verticalAlign=top;verticalLabelPosition=bottom;labelBackgroundColor=#ffffff;imageAspect=0;aspect=fixed;image=https://cdn4.iconfinder.com/data/icons/ionicons/512/icon-arrow-down-b-128.png" vertex="1" parent="1">
          <mxGeometry x="1247.25" y="1489.25" width="8" height="8" as="geometry" />
        </mxCell>
        <mxCell id="1ssIQFsaXV9nHCZhH8ZB-49" value="a" style="text;html=1;align=center;verticalAlign=middle;whiteSpace=wrap;rounded=0;" vertex="1" parent="1">
          <mxGeometry x="1062.5" y="1481.25" width="50" height="15.75" as="geometry" />
        </mxCell>
        <mxCell id="1ssIQFsaXV9nHCZhH8ZB-50" value="Delete Student In this Faculty" style="text;html=1;align=left;verticalAlign=middle;whiteSpace=wrap;rounded=0;" vertex="1" parent="1">
          <mxGeometry x="1320" y="1445" width="190" height="30" as="geometry" />
        </mxCell>
        <mxCell id="1ssIQFsaXV9nHCZhH8ZB-55" value="" style="rounded=0;whiteSpace=wrap;html=1;" vertex="1" parent="1">
          <mxGeometry x="-800" y="1120" width="727.5" height="70" as="geometry" />
        </mxCell>
        <mxCell id="1ssIQFsaXV9nHCZhH8ZB-56" value="" style="rounded=0;whiteSpace=wrap;html=1;" vertex="1" parent="1">
          <mxGeometry x="-800" y="1190" width="160" height="360" as="geometry" />
        </mxCell>
        <mxCell id="1ssIQFsaXV9nHCZhH8ZB-57" value="" style="rounded=0;whiteSpace=wrap;html=1;" vertex="1" parent="1">
          <mxGeometry x="-800" y="1190" width="160" height="60" as="geometry" />
        </mxCell>
        <mxCell id="1ssIQFsaXV9nHCZhH8ZB-58" value="" style="shape=actor;whiteSpace=wrap;html=1;" vertex="1" parent="1">
          <mxGeometry x="-145" y="1150" width="20" height="15" as="geometry" />
        </mxCell>
        <mxCell id="1ssIQFsaXV9nHCZhH8ZB-59" value="" style="html=1;verticalLabelPosition=bottom;align=center;labelBackgroundColor=#ffffff;verticalAlign=top;strokeWidth=2;strokeColor=#000000;shadow=0;dashed=0;shape=mxgraph.ios7.icons.bell;" vertex="1" parent="1">
          <mxGeometry x="-210" y="1152.5" width="20" height="10" as="geometry" />
        </mxCell>
        <mxCell id="1ssIQFsaXV9nHCZhH8ZB-60" value="" style="sketch=0;pointerEvents=1;shadow=0;dashed=0;html=1;strokeColor=none;fillColor=#505050;labelPosition=center;verticalLabelPosition=bottom;verticalAlign=top;outlineConnect=0;align=center;shape=mxgraph.office.concepts.home;" vertex="1" parent="1">
          <mxGeometry x="-790" y="1205" width="30" height="30" as="geometry" />
        </mxCell>
        <mxCell id="1ssIQFsaXV9nHCZhH8ZB-61" value="Admin Page" style="text;html=1;align=center;verticalAlign=middle;whiteSpace=wrap;rounded=0;" vertex="1" parent="1">
          <mxGeometry x="-760" y="1205" width="90" height="30" as="geometry" />
        </mxCell>
        <mxCell id="1ssIQFsaXV9nHCZhH8ZB-62" value="" style="shape=image;verticalLabelPosition=bottom;labelBackgroundColor=default;verticalAlign=top;aspect=fixed;imageAspect=0;image=https://images.rawpixel.com/image_png_social_square/czNmcy1wcml2YXRlL3Jhd3BpeGVsX2ltYWdlcy93ZWJzaXRlX2NvbnRlbnQvbHIvdjk5My00MC5wbmc.png;" vertex="1" parent="1">
          <mxGeometry x="-792.5" y="1300" width="20" height="20" as="geometry" />
        </mxCell>
        <mxCell id="1ssIQFsaXV9nHCZhH8ZB-63" value="Dash board" style="text;html=1;align=center;verticalAlign=middle;whiteSpace=wrap;rounded=0;" vertex="1" parent="1">
          <mxGeometry x="-770" y="1295" width="90" height="30" as="geometry" />
        </mxCell>
        <mxCell id="1ssIQFsaXV9nHCZhH8ZB-64" value="" style="shape=internalStorage;whiteSpace=wrap;html=1;backgroundOutline=1;dx=10;dy=20;" vertex="1" parent="1">
          <mxGeometry x="-795" y="1340" width="25" height="20" as="geometry" />
        </mxCell>
        <mxCell id="1ssIQFsaXV9nHCZhH8ZB-65" value="System management" style="text;html=1;align=center;verticalAlign=middle;whiteSpace=wrap;rounded=0;" vertex="1" parent="1">
          <mxGeometry x="-785" y="1337.5" width="150" height="25" as="geometry" />
        </mxCell>
        <mxCell id="1ssIQFsaXV9nHCZhH8ZB-66" value="&lt;i&gt;Navigation&lt;/i&gt;" style="text;html=1;align=center;verticalAlign=middle;whiteSpace=wrap;rounded=0;" vertex="1" parent="1">
          <mxGeometry x="-785" y="1260" width="60" height="30" as="geometry" />
        </mxCell>
        <mxCell id="1ssIQFsaXV9nHCZhH8ZB-67" value="Admin account management" style="text;html=1;align=center;verticalAlign=middle;whiteSpace=wrap;rounded=0;" vertex="1" parent="1">
          <mxGeometry x="-785" y="1140" width="160" height="30" as="geometry" />
        </mxCell>
        <mxCell id="1ssIQFsaXV9nHCZhH8ZB-68" value="" style="triangle;whiteSpace=wrap;html=1;" vertex="1" parent="1">
          <mxGeometry x="-777.5" y="1390" width="10" height="10" as="geometry" />
        </mxCell>
        <mxCell id="1ssIQFsaXV9nHCZhH8ZB-69" value="Account" style="text;html=1;align=left;verticalAlign=middle;whiteSpace=wrap;rounded=0;" vertex="1" parent="1">
          <mxGeometry x="-760" y="1380" width="60" height="30" as="geometry" />
        </mxCell>
        <mxCell id="1ssIQFsaXV9nHCZhH8ZB-70" value="" style="triangle;whiteSpace=wrap;html=1;" vertex="1" parent="1">
          <mxGeometry x="-777.5" y="1425" width="10" height="10" as="geometry" />
        </mxCell>
        <mxCell id="1ssIQFsaXV9nHCZhH8ZB-71" value="Event" style="text;html=1;align=left;verticalAlign=middle;whiteSpace=wrap;rounded=0;" vertex="1" parent="1">
          <mxGeometry x="-760" y="1415" width="60" height="30" as="geometry" />
        </mxCell>
        <mxCell id="1ssIQFsaXV9nHCZhH8ZB-72" value="" style="rounded=0;whiteSpace=wrap;html=1;fillColor=#f5f5f5;strokeColor=#666666;fontColor=#333333;" vertex="1" parent="1">
          <mxGeometry x="-640" y="1190" width="567.5" height="360" as="geometry" />
        </mxCell>
        <mxCell id="1ssIQFsaXV9nHCZhH8ZB-73" value="" style="sketch=0;pointerEvents=1;shadow=0;dashed=0;html=1;strokeColor=none;fillColor=#505050;labelPosition=center;verticalLabelPosition=bottom;verticalAlign=top;outlineConnect=0;align=center;shape=mxgraph.office.concepts.home;" vertex="1" parent="1">
          <mxGeometry x="-630" y="1240" width="20" height="20" as="geometry" />
        </mxCell>
        <mxCell id="1ssIQFsaXV9nHCZhH8ZB-74" value="&lt;b&gt;List Accounts&lt;/b&gt;" style="text;html=1;align=center;verticalAlign=middle;whiteSpace=wrap;rounded=0;" vertex="1" parent="1">
          <mxGeometry x="-630" y="1205" width="85" height="30" as="geometry" />
        </mxCell>
        <mxCell id="1ssIQFsaXV9nHCZhH8ZB-75" value="&lt;span style=&quot;font-size: 11px;&quot;&gt;&lt;b&gt;Edit an account&lt;/b&gt;&lt;/span&gt;" style="text;html=1;align=center;verticalAlign=middle;whiteSpace=wrap;rounded=0;" vertex="1" parent="1">
          <mxGeometry x="-600" y="1235" width="95" height="30" as="geometry" />
        </mxCell>
        <mxCell id="1ssIQFsaXV9nHCZhH8ZB-76" value="Add a User" style="swimlane;whiteSpace=wrap;html=1;align=left;startSize=40;" vertex="1" parent="1">
          <mxGeometry x="-620" y="1269" width="510" height="261" as="geometry">
            <mxRectangle x="512.5" y="2129" width="130" height="70" as="alternateBounds" />
          </mxGeometry>
        </mxCell>
        <mxCell id="1ssIQFsaXV9nHCZhH8ZB-77" value="" style="rounded=0;whiteSpace=wrap;html=1;" vertex="1" parent="1ssIQFsaXV9nHCZhH8ZB-76">
          <mxGeometry x="22.5" y="116" width="200" height="25" as="geometry" />
        </mxCell>
        <mxCell id="1ssIQFsaXV9nHCZhH8ZB-78" value="Password" style="text;html=1;align=left;verticalAlign=middle;whiteSpace=wrap;rounded=0;" vertex="1" parent="1ssIQFsaXV9nHCZhH8ZB-76">
          <mxGeometry x="22.5" y="91" width="60" height="30" as="geometry" />
        </mxCell>
        <mxCell id="1ssIQFsaXV9nHCZhH8ZB-79" value="Name" style="text;html=1;align=left;verticalAlign=middle;whiteSpace=wrap;rounded=0;" vertex="1" parent="1ssIQFsaXV9nHCZhH8ZB-76">
          <mxGeometry x="22.5" y="41" width="60" height="30" as="geometry" />
        </mxCell>
        <mxCell id="1ssIQFsaXV9nHCZhH8ZB-80" value="Email address" style="text;html=1;align=left;verticalAlign=middle;whiteSpace=wrap;rounded=0;" vertex="1" parent="1ssIQFsaXV9nHCZhH8ZB-76">
          <mxGeometry x="277.5" y="41" width="95" height="30" as="geometry" />
        </mxCell>
        <mxCell id="1ssIQFsaXV9nHCZhH8ZB-81" value="" style="rounded=0;whiteSpace=wrap;html=1;" vertex="1" parent="1ssIQFsaXV9nHCZhH8ZB-76">
          <mxGeometry x="277.5" y="66" width="200" height="25" as="geometry" />
        </mxCell>
        <mxCell id="1ssIQFsaXV9nHCZhH8ZB-88" value="Photo" style="text;html=1;align=left;verticalAlign=middle;whiteSpace=wrap;rounded=0;" vertex="1" parent="1ssIQFsaXV9nHCZhH8ZB-76">
          <mxGeometry x="22.5" y="141" width="60" height="30" as="geometry" />
        </mxCell>
        <mxCell id="1ssIQFsaXV9nHCZhH8ZB-89" value="Choose file" style="rounded=0;whiteSpace=wrap;html=1;align=left;" vertex="1" parent="1ssIQFsaXV9nHCZhH8ZB-76">
          <mxGeometry x="22.5" y="171" width="200" height="25" as="geometry" />
        </mxCell>
        <mxCell id="1ssIQFsaXV9nHCZhH8ZB-90" value="" style="endArrow=none;html=1;rounded=0;exitX=0.75;exitY=1;exitDx=0;exitDy=0;entryX=0.75;entryY=0;entryDx=0;entryDy=0;" edge="1" parent="1ssIQFsaXV9nHCZhH8ZB-76" source="1ssIQFsaXV9nHCZhH8ZB-89" target="1ssIQFsaXV9nHCZhH8ZB-89">
          <mxGeometry width="50" height="50" relative="1" as="geometry">
            <mxPoint x="192.5" y="121" as="sourcePoint" />
            <mxPoint x="242.5" y="71" as="targetPoint" />
          </mxGeometry>
        </mxCell>
        <mxCell id="1ssIQFsaXV9nHCZhH8ZB-91" value="Browse" style="text;html=1;align=center;verticalAlign=middle;whiteSpace=wrap;rounded=0;" vertex="1" parent="1ssIQFsaXV9nHCZhH8ZB-76">
          <mxGeometry x="172.5" y="173.5" width="50" height="20" as="geometry" />
        </mxCell>
        <mxCell id="1ssIQFsaXV9nHCZhH8ZB-92" value="Submit" style="html=1;shadow=0;dashed=0;shape=mxgraph.bootstrap.rrect;rSize=5;strokeColor=none;strokeWidth=1;fillColor=#33A64C;fontColor=#FFFFFF;whiteSpace=wrap;align=center;verticalAlign=middle;spacingLeft=0;fontStyle=0;fontSize=16;spacing=5;" vertex="1" parent="1ssIQFsaXV9nHCZhH8ZB-76">
          <mxGeometry x="22.5" y="221" width="60" height="30" as="geometry" />
        </mxCell>
        <mxCell id="1ssIQFsaXV9nHCZhH8ZB-93" value="" style="rounded=0;whiteSpace=wrap;html=1;" vertex="1" parent="1ssIQFsaXV9nHCZhH8ZB-76">
          <mxGeometry x="22.5" y="66" width="197.5" height="25" as="geometry" />
        </mxCell>
        <mxCell id="1ssIQFsaXV9nHCZhH8ZB-94" value="Current faculty: web" style="text;html=1;align=left;verticalAlign=middle;whiteSpace=wrap;rounded=0;" vertex="1" parent="1">
          <mxGeometry x="-340" y="1380" width="140" height="30" as="geometry" />
        </mxCell>
        <mxCell id="1ssIQFsaXV9nHCZhH8ZB-109" value="" style="rounded=0;whiteSpace=wrap;html=1;" vertex="1" parent="1">
          <mxGeometry x="-790" y="1630" width="717.5" height="430" as="geometry" />
        </mxCell>
        <mxCell id="1ssIQFsaXV9nHCZhH8ZB-110" value="" style="curved=1;endArrow=none;html=1;rounded=0;exitX=0;exitY=1;exitDx=0;exitDy=0;entryX=0.5;entryY=0;entryDx=0;entryDy=0;endFill=0;" edge="1" parent="1" source="1ssIQFsaXV9nHCZhH8ZB-109" target="1ssIQFsaXV9nHCZhH8ZB-109">
          <mxGeometry width="50" height="50" relative="1" as="geometry">
            <mxPoint x="-480" y="1860" as="sourcePoint" />
            <mxPoint x="-430" y="1810" as="targetPoint" />
            <Array as="points">
              <mxPoint x="-530" y="2040" />
              <mxPoint x="-430" y="1860" />
            </Array>
          </mxGeometry>
        </mxCell>
        <mxCell id="1ssIQFsaXV9nHCZhH8ZB-111" value="&lt;font style=&quot;font-size: 22px;&quot;&gt;Student Login&lt;/font&gt;" style="text;html=1;align=center;verticalAlign=middle;whiteSpace=wrap;rounded=0;" vertex="1" parent="1">
          <mxGeometry x="-730" y="1800" width="160" height="30" as="geometry" />
        </mxCell>
        <mxCell id="1ssIQFsaXV9nHCZhH8ZB-112" value="Visit the school&#39;s website to come up with unique andcreative ideas to create a better future!" style="text;html=1;align=left;verticalAlign=middle;whiteSpace=wrap;rounded=0;" vertex="1" parent="1">
          <mxGeometry x="-730" y="1845" width="270" height="30" as="geometry" />
        </mxCell>
        <mxCell id="1ssIQFsaXV9nHCZhH8ZB-113" value="" style="rounded=1;whiteSpace=wrap;html=1;" vertex="1" parent="1">
          <mxGeometry x="-420" y="1745" width="330" height="230" as="geometry" />
        </mxCell>
        <mxCell id="1ssIQFsaXV9nHCZhH8ZB-114" value="" style="rounded=1;whiteSpace=wrap;html=1;fillColor=#dae8fc;strokeColor=#6c8ebf;" vertex="1" parent="1">
          <mxGeometry x="-400" y="1760" width="280" height="35" as="geometry" />
        </mxCell>
        <mxCell id="1ssIQFsaXV9nHCZhH8ZB-115" value="" style="rounded=1;whiteSpace=wrap;html=1;fillColor=#dae8fc;strokeColor=#6c8ebf;" vertex="1" parent="1">
          <mxGeometry x="-400" y="1805" width="280" height="35" as="geometry" />
        </mxCell>
        <mxCell id="1ssIQFsaXV9nHCZhH8ZB-116" value="Sign in" style="html=1;shadow=0;dashed=0;shape=mxgraph.bootstrap.rrect;rSize=5;strokeColor=none;strokeWidth=1;fillColor=#33A64C;fontColor=#FFFFFF;whiteSpace=wrap;align=center;verticalAlign=middle;spacingLeft=0;fontStyle=0;fontSize=16;spacing=5;" vertex="1" parent="1">
          <mxGeometry x="-400" y="1850" width="280" height="30" as="geometry" />
        </mxCell>
        <mxCell id="1ssIQFsaXV9nHCZhH8ZB-117" value="" style="shape=actor;whiteSpace=wrap;html=1;fillColor=#000000;" vertex="1" parent="1">
          <mxGeometry x="-390" y="1770" width="20" height="15" as="geometry" />
        </mxCell>
        <mxCell id="1ssIQFsaXV9nHCZhH8ZB-118" value="" style="sketch=0;pointerEvents=1;shadow=0;dashed=0;html=1;strokeColor=none;fillColor=#000000;labelPosition=center;verticalLabelPosition=bottom;verticalAlign=top;outlineConnect=0;align=center;shape=mxgraph.office.security.lock_protected;" vertex="1" parent="1">
          <mxGeometry x="-390" y="1812.5" width="20" height="20" as="geometry" />
        </mxCell>
        <mxCell id="1ssIQFsaXV9nHCZhH8ZB-120" value="&lt;font color=&quot;#6666ff&quot;&gt;&lt;u&gt;Marketing Manager Login&lt;/u&gt;&lt;/font&gt;" style="text;html=1;align=center;verticalAlign=middle;whiteSpace=wrap;rounded=0;" vertex="1" parent="1">
          <mxGeometry x="-400" y="1890" width="280" height="20" as="geometry" />
        </mxCell>
        <mxCell id="1ssIQFsaXV9nHCZhH8ZB-121" value="&lt;font color=&quot;#6666ff&quot;&gt;&lt;u&gt;Marketing Coordinator Login&lt;/u&gt;&lt;/font&gt;" style="text;html=1;align=center;verticalAlign=middle;whiteSpace=wrap;rounded=0;" vertex="1" parent="1">
          <mxGeometry x="-400" y="1910" width="280" height="20" as="geometry" />
        </mxCell>
        <mxCell id="1ssIQFsaXV9nHCZhH8ZB-122" value="&lt;font color=&quot;#6666ff&quot;&gt;&lt;u&gt;Student Login&lt;/u&gt;&lt;/font&gt;" style="text;html=1;align=center;verticalAlign=middle;whiteSpace=wrap;rounded=0;" vertex="1" parent="1">
          <mxGeometry x="-400" y="1930" width="280" height="20" as="geometry" />
        </mxCell>
      </root>
    </mxGraphModel>
  </diagram>
</mxfile>
